<svg xmlns="http://www.w3.org/2000/svg" xmlns:xlink="http://www.w3.org/1999/xlink" width="400" zoomAndPan="magnify" viewBox="0 0 300 179.999997" height="240" preserveAspectRatio="xMidYMid meet" version="1.2"><defs><clipPath id="40c3c5f4bf"><path d="M 118.554688 45.699219 L 169.554688 45.699219 L 169.554688 69.699219 L 118.554688 69.699219 Z M 118.554688 45.699219 "/></clipPath></defs><g id="9de2a02987"><rect x="0" width="300" y="0" height="179.999997" style="fill:#ffffff;fill-opacity:1;stroke:none;"/><rect x="0" width="300" y="0" height="179.999997" style="fill:#ffffff;fill-opacity:1;stroke:none;"/><rect x="0" width="300" y="0" height="179.999997" style="fill:#2c2c2c;fill-opacity:1;stroke:none;"/><g style="fill:#ffffff;fill-opacity:1;"><g transform="translate(28.01987, 98.866436)"><path style="stroke:none" d="M 19.484375 -14.40625 C 21.109375 -14.050781 22.410156 -13.238281 23.390625 -11.96875 C 24.378906 -10.707031 24.875 -9.265625 24.875 -7.640625 C 24.875 -5.296875 24.050781 -3.4375 22.40625 -2.0625 C 20.769531 -0.6875 18.488281 0 15.5625 0 L 2.484375 0 L 2.484375 -28.078125 L 15.125 -28.078125 C 17.976562 -28.078125 20.207031 -27.421875 21.8125 -26.109375 C 23.425781 -24.804688 24.234375 -23.035156 24.234375 -20.796875 C 24.234375 -19.140625 23.800781 -17.765625 22.9375 -16.671875 C 22.070312 -15.585938 20.921875 -14.832031 19.484375 -14.40625 Z M 9.3125 -16.71875 L 13.796875 -16.71875 C 14.921875 -16.71875 15.78125 -16.960938 16.375 -17.453125 C 16.976562 -17.953125 17.28125 -18.679688 17.28125 -19.640625 C 17.28125 -20.597656 16.976562 -21.328125 16.375 -21.828125 C 15.78125 -22.335938 14.921875 -22.59375 13.796875 -22.59375 L 9.3125 -22.59375 Z M 14.359375 -5.515625 C 15.503906 -5.515625 16.390625 -5.773438 17.015625 -6.296875 C 17.640625 -6.816406 17.953125 -7.570312 17.953125 -8.5625 C 17.953125 -9.550781 17.625 -10.320312 16.96875 -10.875 C 16.320312 -11.4375 15.425781 -11.71875 14.28125 -11.71875 L 9.3125 -11.71875 L 9.3125 -5.515625 Z M 14.359375 -5.515625 "/></g></g><g style="fill:#ffffff;fill-opacity:1;"><g transform="translate(54.377248, 98.866436)"><path style="stroke:none" d="M 9.3125 -18.59375 C 10.113281 -19.820312 11.113281 -20.789062 12.3125 -21.5 C 13.519531 -22.207031 14.851562 -22.5625 16.3125 -22.5625 L 16.3125 -15.3125 L 14.4375 -15.3125 C 12.726562 -15.3125 11.445312 -14.945312 10.59375 -14.21875 C 9.738281 -13.488281 9.3125 -12.203125 9.3125 -10.359375 L 9.3125 0 L 2.484375 0 L 2.484375 -22.3125 L 9.3125 -22.3125 Z M 9.3125 -18.59375 "/></g></g><g style="fill:#ffffff;fill-opacity:1;"><g transform="translate(71.495549, 98.866436)"><path style="stroke:none" d="M 23.515625 -11.515625 C 23.515625 -10.878906 23.476562 -10.210938 23.40625 -9.515625 L 7.921875 -9.515625 C 8.023438 -8.128906 8.46875 -7.066406 9.25 -6.328125 C 10.039062 -5.597656 11.007812 -5.234375 12.15625 -5.234375 C 13.863281 -5.234375 15.050781 -5.957031 15.71875 -7.40625 L 23 -7.40625 C 22.625 -5.9375 21.945312 -4.613281 20.96875 -3.4375 C 20 -2.269531 18.78125 -1.351562 17.3125 -0.6875 C 15.851562 -0.0195312 14.21875 0.3125 12.40625 0.3125 C 10.21875 0.3125 8.269531 -0.148438 6.5625 -1.078125 C 4.851562 -2.015625 3.519531 -3.347656 2.5625 -5.078125 C 1.601562 -6.816406 1.125 -8.84375 1.125 -11.15625 C 1.125 -13.476562 1.59375 -15.503906 2.53125 -17.234375 C 3.476562 -18.972656 4.804688 -20.304688 6.515625 -21.234375 C 8.222656 -22.171875 10.1875 -22.640625 12.40625 -22.640625 C 14.5625 -22.640625 16.476562 -22.1875 18.15625 -21.28125 C 19.84375 -20.375 21.15625 -19.078125 22.09375 -17.390625 C 23.039062 -15.710938 23.515625 -13.753906 23.515625 -11.515625 Z M 16.515625 -13.3125 C 16.515625 -14.488281 16.113281 -15.421875 15.3125 -16.109375 C 14.519531 -16.804688 13.519531 -17.15625 12.3125 -17.15625 C 11.164062 -17.15625 10.195312 -16.820312 9.40625 -16.15625 C 8.625 -15.488281 8.140625 -14.539062 7.953125 -13.3125 Z M 16.515625 -13.3125 "/></g></g><g style="fill:#ffffff;fill-opacity:1;"><g transform="translate(96.133098, 98.866436)"><path style="stroke:none" d="M 34.515625 -22.3125 L 28.484375 0 L 20.921875 0 L 17.40625 -14.484375 L 13.765625 0 L 6.234375 0 L 0.15625 -22.3125 L 7 -22.3125 L 10.15625 -6.359375 L 13.921875 -22.3125 L 21.15625 -22.3125 L 24.953125 -6.4375 L 28.078125 -22.3125 Z M 34.515625 -22.3125 "/></g></g><g style="fill:#41bda9;fill-opacity:1;"><g transform="translate(132.684963, 98.116436)"><path style="stroke:none" d="M 19.636719 -15.132812 C 21.441406 -14.746094 22.890625 -13.851562 23.988281 -12.441406 C 25.082031 -11.039062 25.628906 -9.4375 25.628906 -7.640625 C 25.628906 -5.058594 24.71875 -3.007812 22.898438 -1.484375 C 21.121094 0.00390625 18.675781 0.75 15.558594 0.75 L 1.730469 0.75 L 1.730469 -28.828125 L 15.117188 -28.828125 C 18.148438 -28.828125 20.539062 -28.121094 22.289062 -26.703125 C 24.089844 -25.246094 24.988281 -23.277344 24.988281 -20.796875 C 24.988281 -18.972656 24.5 -17.441406 23.527344 -16.214844 C 22.5625 -14.996094 21.285156 -14.152344 19.691406 -13.679688 L 19.480469 -14.398438 Z M 19.324219 -13.664062 L 19.265625 -15.117188 C 20.554688 -15.5 21.582031 -16.175781 22.351562 -17.144531 C 23.109375 -18.101562 23.488281 -19.320312 23.488281 -20.796875 C 23.488281 -22.800781 22.773438 -24.378906 21.347656 -25.535156 C 19.871094 -26.730469 17.796875 -27.328125 15.117188 -27.328125 L 2.480469 -27.328125 L 2.480469 -28.078125 L 3.230469 -28.078125 L 3.230469 0 L 2.480469 0 L 2.480469 -0.75 L 15.558594 -0.75 C 18.308594 -0.75 20.4375 -1.378906 21.9375 -2.636719 C 23.398438 -3.859375 24.128906 -5.527344 24.128906 -7.640625 C 24.128906 -9.09375 23.6875 -10.386719 22.808594 -11.519531 C 21.933594 -12.640625 20.769531 -13.355469 19.324219 -13.664062 Z M 9.320312 -17.46875 L 13.800781 -17.46875 C 14.738281 -17.46875 15.441406 -17.660156 15.902344 -18.039062 C 16.320312 -18.382812 16.527344 -18.914062 16.527344 -19.640625 C 16.527344 -20.367188 16.316406 -20.910156 15.894531 -21.265625 C 15.433594 -21.652344 14.734375 -21.847656 13.800781 -21.847656 L 9.320312 -21.847656 L 9.320312 -22.597656 L 10.070312 -22.597656 L 10.070312 -16.71875 L 9.320312 -16.71875 Z M 8.570312 -15.96875 L 8.570312 -23.347656 L 13.800781 -23.347656 C 15.101562 -23.347656 16.125 -23.035156 16.863281 -22.410156 C 17.640625 -21.753906 18.027344 -20.832031 18.027344 -19.640625 C 18.027344 -18.441406 17.636719 -17.523438 16.855469 -16.878906 C 16.117188 -16.273438 15.097656 -15.96875 13.800781 -15.96875 Z M 14.359375 -6.269531 C 15.324219 -6.269531 16.050781 -6.472656 16.539062 -6.875 C 16.984375 -7.246094 17.207031 -7.808594 17.207031 -8.558594 C 17.207031 -9.316406 16.96875 -9.898438 16.492188 -10.308594 C 15.976562 -10.75 15.242188 -10.96875 14.277344 -10.96875 L 9.320312 -10.96875 L 9.320312 -11.71875 L 10.070312 -11.71875 L 10.070312 -5.519531 L 9.320312 -5.519531 L 9.320312 -6.269531 Z M 14.359375 -4.769531 L 8.570312 -4.769531 L 8.570312 -12.46875 L 14.277344 -12.46875 C 15.609375 -12.46875 16.671875 -12.128906 17.46875 -11.449219 C 18.296875 -10.738281 18.707031 -9.777344 18.707031 -8.558594 C 18.707031 -7.339844 18.304688 -6.390625 17.496094 -5.722656 C 16.730469 -5.085938 15.6875 -4.769531 14.359375 -4.769531 Z M 14.359375 -4.769531 "/></g></g><g style="fill:#41bda9;fill-opacity:1;"><g transform="translate(159.042341, 98.116436)"><path style="stroke:none" d="M 8.691406 -19.007812 C 9.554688 -20.332031 10.636719 -21.378906 11.9375 -22.144531 C 13.257812 -22.921875 14.714844 -23.308594 16.320312 -23.308594 L 17.070312 -23.308594 L 17.070312 -14.570312 L 14.4375 -14.570312 C 12.917969 -14.570312 11.800781 -14.261719 11.089844 -13.648438 C 10.410156 -13.066406 10.070312 -11.96875 10.070312 -10.359375 L 10.070312 0.75 L 1.730469 0.75 L 1.730469 -23.070312 L 10.070312 -23.070312 L 10.070312 -18.597656 L 9.320312 -18.597656 Z M 8.570312 -16.074219 L 8.570312 -22.320312 L 9.320312 -22.320312 L 9.320312 -21.570312 L 2.480469 -21.570312 L 2.480469 -22.320312 L 3.230469 -22.320312 L 3.230469 0 L 2.480469 0 L 2.480469 -0.75 L 9.320312 -0.75 L 9.320312 0 L 8.570312 0 L 8.570312 -10.359375 C 8.570312 -12.429688 9.082031 -13.90625 10.109375 -14.789062 C 11.105469 -15.640625 12.546875 -16.070312 14.4375 -16.070312 L 16.320312 -16.070312 L 16.320312 -15.320312 L 15.570312 -15.320312 L 15.570312 -22.558594 L 16.320312 -22.558594 L 16.320312 -21.808594 C 14.988281 -21.808594 13.78125 -21.488281 12.699219 -20.851562 C 11.601562 -20.207031 10.683594 -19.316406 9.949219 -18.1875 Z M 8.570312 -16.074219 "/></g></g><g style="fill:#41bda9;fill-opacity:1;"><g transform="translate(176.160642, 98.116436)"><path style="stroke:none" d="M 5.917969 -23.886719 C 4.523438 -23.886719 3.371094 -24.308594 2.46875 -25.148438 C 1.550781 -26.003906 1.089844 -27.058594 1.089844 -28.316406 C 1.089844 -29.601562 1.550781 -30.671875 2.46875 -31.527344 C 3.371094 -32.367188 4.523438 -32.789062 5.917969 -32.789062 C 7.289062 -32.789062 8.425781 -32.367188 9.332031 -31.527344 C 10.25 -30.671875 10.710938 -29.601562 10.710938 -28.316406 C 10.710938 -27.058594 10.25 -26.003906 9.332031 -25.148438 C 8.425781 -24.308594 7.289062 -23.886719 5.917969 -23.886719 Z M 5.917969 -25.386719 C 6.894531 -25.386719 7.691406 -25.675781 8.308594 -26.246094 C 8.910156 -26.804688 9.210938 -27.496094 9.210938 -28.316406 C 9.210938 -29.167969 8.910156 -29.871094 8.308594 -30.429688 C 7.691406 -31 6.894531 -31.289062 5.917969 -31.289062 C 4.917969 -31.289062 4.105469 -31 3.492188 -30.429688 C 2.890625 -29.871094 2.589844 -29.167969 2.589844 -28.316406 C 2.589844 -27.496094 2.890625 -26.804688 3.492188 -26.246094 C 4.105469 -25.675781 4.917969 -25.386719 5.917969 -25.386719 Z M 10.070312 -22.320312 L 10.070312 0.75 L 1.730469 0.75 L 1.730469 -23.070312 L 10.070312 -23.070312 Z M 8.570312 -22.320312 L 9.320312 -22.320312 L 9.320312 -21.570312 L 2.480469 -21.570312 L 2.480469 -22.320312 L 3.230469 -22.320312 L 3.230469 0 L 2.480469 0 L 2.480469 -0.75 L 9.320312 -0.75 L 9.320312 0 L 8.570312 0 Z M 8.570312 -22.320312 "/></g></g><g style="fill:#41bda9;fill-opacity:1;"><g transform="translate(187.959465, 98.116436)"><path style="stroke:none" d="M 0.371094 -11.199219 C 0.371094 -13.609375 0.828125 -15.734375 1.75 -17.574219 C 2.679688 -19.433594 3.949219 -20.867188 5.5625 -21.875 C 7.175781 -22.882812 8.976562 -23.386719 10.960938 -23.386719 C 12.546875 -23.386719 13.996094 -23.054688 15.316406 -22.386719 C 16.648438 -21.714844 17.695312 -20.804688 18.464844 -19.65625 L 17.839844 -19.238281 L 17.089844 -19.238281 L 17.089844 -30.347656 L 25.429688 -30.347656 L 25.429688 0.75 L 17.089844 0.75 L 17.089844 -3.199219 L 17.839844 -3.199219 L 18.480469 -2.8125 C 17.769531 -1.628906 16.761719 -0.683594 15.453125 0.0195312 C 14.15625 0.71875 12.660156 1.070312 10.960938 1.070312 C 8.972656 1.070312 7.175781 0.558594 5.558594 -0.464844 C 3.945312 -1.488281 2.675781 -2.933594 1.746094 -4.804688 C 0.828125 -6.65625 0.371094 -8.789062 0.371094 -11.199219 Z M 1.871094 -11.199219 C 1.871094 -9.023438 2.277344 -7.113281 3.089844 -5.472656 C 3.894531 -3.851562 4.984375 -2.605469 6.359375 -1.734375 C 7.730469 -0.863281 9.265625 -0.429688 10.960938 -0.429688 C 12.40625 -0.429688 13.667969 -0.71875 14.742188 -1.300781 C 15.808594 -1.875 16.625 -2.636719 17.195312 -3.585938 L 18.589844 -5.90625 L 18.589844 0 L 17.839844 0 L 17.839844 -0.75 L 24.679688 -0.75 L 24.679688 0 L 23.929688 0 L 23.929688 -29.597656 L 24.679688 -29.597656 L 24.679688 -28.847656 L 17.839844 -28.847656 L 17.839844 -29.597656 L 18.589844 -29.597656 L 18.589844 -16.761719 L 17.214844 -18.824219 C 16.59375 -19.753906 15.738281 -20.496094 14.640625 -21.050781 C 13.535156 -21.609375 12.308594 -21.886719 10.960938 -21.886719 C 9.261719 -21.886719 7.730469 -21.460938 6.355469 -20.601562 C 4.984375 -19.742188 3.894531 -18.511719 3.089844 -16.902344 C 2.277344 -15.277344 1.871094 -13.375 1.871094 -11.199219 Z M 17.089844 -11.160156 C 17.089844 -12.664062 16.683594 -13.839844 15.878906 -14.679688 C 15.078125 -15.511719 14.105469 -15.929688 12.960938 -15.929688 C 11.808594 -15.929688 10.835938 -15.519531 10.035156 -14.695312 C 9.230469 -13.867188 8.828125 -12.703125 8.828125 -11.199219 C 8.828125 -9.691406 9.234375 -8.511719 10.042969 -7.65625 C 10.84375 -6.8125 11.8125 -6.390625 12.960938 -6.390625 C 14.105469 -6.390625 15.078125 -6.804688 15.878906 -7.640625 C 16.683594 -8.480469 17.089844 -9.652344 17.089844 -11.160156 Z M 18.589844 -11.160156 C 18.589844 -9.25 18.046875 -7.730469 16.960938 -6.601562 C 15.867188 -5.460938 14.53125 -4.890625 12.960938 -4.890625 C 11.382812 -4.890625 10.050781 -5.46875 8.953125 -6.625 C 7.871094 -7.769531 7.328125 -9.292969 7.328125 -11.199219 C 7.328125 -13.109375 7.875 -14.625 8.960938 -15.742188 C 10.054688 -16.867188 11.386719 -17.429688 12.960938 -17.429688 C 14.53125 -17.429688 15.867188 -16.859375 16.960938 -15.71875 C 18.046875 -14.585938 18.589844 -13.066406 18.589844 -11.160156 Z M 18.589844 -11.160156 "/></g></g><g style="fill:#41bda9;fill-opacity:1;"><g transform="translate(215.116763, 98.116436)"><path style="stroke:none" d="M 10.960938 -23.386719 C 12.660156 -23.386719 14.15625 -23.039062 15.453125 -22.339844 C 16.761719 -21.636719 17.765625 -20.707031 18.476562 -19.550781 L 17.839844 -19.160156 L 17.089844 -19.160156 L 17.089844 -23.070312 L 25.429688 -23.070312 L 25.429688 -0.0390625 C 25.429688 2.128906 24.996094 4.097656 24.132812 5.867188 C 23.253906 7.667969 21.917969 9.101562 20.121094 10.164062 C 18.335938 11.222656 16.136719 11.75 13.519531 11.75 C 10.042969 11.75 7.214844 10.917969 5.027344 9.257812 C 2.800781 7.566406 1.53125 5.28125 1.214844 2.402344 L 1.121094 1.570312 L 9.304688 1.570312 L 9.445312 2.136719 C 9.609375 2.792969 10.007812 3.316406 10.632812 3.703125 C 11.3125 4.121094 12.167969 4.328125 13.199219 4.328125 C 14.410156 4.328125 15.363281 3.992188 16.058594 3.320312 C 16.746094 2.65625 17.089844 1.535156 17.089844 -0.0390625 L 17.089844 -3.199219 L 17.839844 -3.199219 L 18.46875 -2.796875 C 17.734375 -1.648438 16.726562 -0.71875 15.445312 -0.00390625 C 14.15625 0.710938 12.664062 1.070312 10.960938 1.070312 C 8.972656 1.070312 7.175781 0.558594 5.558594 -0.464844 C 3.945312 -1.488281 2.675781 -2.933594 1.746094 -4.804688 C 0.828125 -6.65625 0.371094 -8.789062 0.371094 -11.199219 C 0.371094 -13.609375 0.828125 -15.734375 1.75 -17.574219 C 2.679688 -19.433594 3.949219 -20.867188 5.5625 -21.875 C 7.175781 -22.882812 8.976562 -23.386719 10.960938 -23.386719 Z M 10.960938 -21.886719 C 9.261719 -21.886719 7.730469 -21.460938 6.355469 -20.601562 C 4.984375 -19.742188 3.894531 -18.511719 3.089844 -16.902344 C 2.277344 -15.277344 1.871094 -13.375 1.871094 -11.199219 C 1.871094 -9.023438 2.277344 -7.113281 3.089844 -5.472656 C 3.894531 -3.851562 4.984375 -2.605469 6.359375 -1.734375 C 7.730469 -0.863281 9.265625 -0.429688 10.960938 -0.429688 C 12.402344 -0.429688 13.65625 -0.726562 14.714844 -1.316406 C 15.777344 -1.90625 16.609375 -2.671875 17.207031 -3.605469 L 18.589844 -5.757812 L 18.589844 -0.0390625 C 18.589844 1.957031 18.09375 3.4375 17.101562 4.398438 C 16.117188 5.351562 14.816406 5.828125 13.199219 5.828125 C 11.882812 5.828125 10.765625 5.546875 9.84375 4.976562 C 8.871094 4.378906 8.253906 3.550781 7.992188 2.5 L 8.71875 2.320312 L 8.71875 3.070312 L 1.960938 3.070312 L 1.960938 2.320312 L 2.707031 2.238281 C 2.976562 4.691406 4.050781 6.632812 5.933594 8.0625 C 7.851562 9.519531 10.382812 10.25 13.519531 10.25 C 15.863281 10.25 17.808594 9.789062 19.355469 8.875 C 20.894531 7.964844 22.035156 6.742188 22.785156 5.210938 C 23.546875 3.648438 23.929688 1.898438 23.929688 -0.0390625 L 23.929688 -22.320312 L 24.679688 -22.320312 L 24.679688 -21.570312 L 17.839844 -21.570312 L 17.839844 -22.320312 L 18.589844 -22.320312 L 18.589844 -16.507812 L 17.199219 -18.765625 C 16.628906 -19.691406 15.8125 -20.441406 14.742188 -21.019531 C 13.667969 -21.597656 12.40625 -21.886719 10.960938 -21.886719 Z M 17.089844 -11.160156 C 17.089844 -12.664062 16.683594 -13.839844 15.878906 -14.679688 C 15.078125 -15.511719 14.105469 -15.929688 12.960938 -15.929688 C 11.808594 -15.929688 10.835938 -15.519531 10.035156 -14.695312 C 9.230469 -13.867188 8.828125 -12.703125 8.828125 -11.199219 C 8.828125 -9.691406 9.234375 -8.511719 10.042969 -7.65625 C 10.84375 -6.8125 11.8125 -6.390625 12.960938 -6.390625 C 14.105469 -6.390625 15.078125 -6.804688 15.878906 -7.640625 C 16.683594 -8.480469 17.089844 -9.652344 17.089844 -11.160156 Z M 18.589844 -11.160156 C 18.589844 -9.25 18.046875 -7.730469 16.960938 -6.601562 C 15.867188 -5.460938 14.53125 -4.890625 12.960938 -4.890625 C 11.382812 -4.890625 10.050781 -5.46875 8.953125 -6.625 C 7.871094 -7.769531 7.328125 -9.292969 7.328125 -11.199219 C 7.328125 -13.109375 7.875 -14.625 8.960938 -15.742188 C 10.054688 -16.867188 11.386719 -17.429688 12.960938 -17.429688 C 14.53125 -17.429688 15.867188 -16.859375 16.960938 -15.71875 C 18.046875 -14.585938 18.589844 -13.066406 18.589844 -11.160156 Z M 18.589844 -11.160156 "/></g></g><g style="fill:#41bda9;fill-opacity:1;"><g transform="translate(242.27406, 98.116436)"><path style="stroke:none" d="M 24.269531 -11.519531 C 24.269531 -10.851562 24.226562 -10.15625 24.144531 -9.433594 L 24.066406 -8.769531 L 7.917969 -8.769531 L 7.917969 -9.519531 L 8.667969 -9.578125 C 8.757812 -8.386719 9.125 -7.488281 9.769531 -6.886719 C 10.414062 -6.289062 11.210938 -5.988281 12.160156 -5.988281 C 12.871094 -5.988281 13.464844 -6.132812 13.941406 -6.421875 C 14.402344 -6.703125 14.769531 -7.132812 15.039062 -7.714844 L 15.238281 -8.148438 L 23.964844 -8.148438 L 23.726562 -7.214844 C 23.324219 -5.640625 22.601562 -4.222656 21.554688 -2.960938 C 20.507812 -1.699219 19.199219 -0.710938 17.628906 0.00390625 C 16.0625 0.714844 14.320312 1.070312 12.398438 1.070312 C 10.085938 1.070312 8.019531 0.574219 6.199219 -0.421875 C 4.367188 -1.425781 2.933594 -2.855469 1.902344 -4.714844 C 0.882812 -6.5625 0.371094 -8.710938 0.371094 -11.160156 C 0.371094 -13.605469 0.875 -15.753906 1.882812 -17.597656 C 2.898438 -19.460938 4.324219 -20.894531 6.160156 -21.898438 C 7.976562 -22.890625 10.058594 -23.386719 12.398438 -23.386719 C 14.683594 -23.386719 16.722656 -22.90625 18.515625 -21.9375 C 20.320312 -20.964844 21.734375 -19.574219 22.753906 -17.765625 C 23.761719 -15.972656 24.269531 -13.890625 24.269531 -11.519531 Z M 22.769531 -11.519531 C 22.769531 -13.628906 22.328125 -15.464844 21.445312 -17.03125 C 20.570312 -18.585938 19.355469 -19.78125 17.800781 -20.617188 C 16.234375 -21.464844 14.433594 -21.886719 12.398438 -21.886719 C 10.3125 -21.886719 8.472656 -21.453125 6.878906 -20.582031 C 5.300781 -19.71875 4.074219 -18.484375 3.199219 -16.878906 C 2.3125 -15.257812 1.871094 -13.351562 1.871094 -11.160156 C 1.871094 -8.96875 2.320312 -7.0625 3.214844 -5.441406 C 4.105469 -3.835938 5.339844 -2.601562 6.917969 -1.738281 C 8.515625 -0.867188 10.339844 -0.429688 12.398438 -0.429688 C 14.105469 -0.429688 15.640625 -0.742188 17.007812 -1.363281 C 18.371094 -1.980469 19.5 -2.832031 20.402344 -3.917969 C 21.304688 -5.003906 21.925781 -6.226562 22.273438 -7.585938 L 23 -7.398438 L 23 -6.648438 L 15.71875 -6.648438 L 15.71875 -7.398438 L 16.398438 -7.085938 C 16.003906 -6.226562 15.441406 -5.578125 14.71875 -5.136719 C 14.003906 -4.707031 13.152344 -4.488281 12.160156 -4.488281 C 10.816406 -4.488281 9.679688 -4.921875 8.746094 -5.789062 C 7.820312 -6.65625 7.292969 -7.882812 7.171875 -9.460938 L 7.109375 -10.269531 L 23.398438 -10.269531 L 23.398438 -9.519531 L 22.652344 -9.605469 C 22.730469 -10.269531 22.769531 -10.90625 22.769531 -11.519531 Z M 15.769531 -13.320312 C 15.769531 -14.265625 15.457031 -15.007812 14.828125 -15.550781 C 14.167969 -16.125 13.332031 -16.410156 12.320312 -16.410156 C 11.355469 -16.410156 10.550781 -16.136719 9.90625 -15.585938 C 9.261719 -15.042969 8.859375 -14.246094 8.699219 -13.207031 L 7.960938 -13.320312 L 7.960938 -14.070312 L 16.519531 -14.070312 L 16.519531 -13.320312 Z M 17.269531 -12.570312 L 7.085938 -12.570312 L 7.21875 -13.433594 C 7.433594 -14.84375 8.003906 -15.945312 8.933594 -16.730469 C 9.859375 -17.515625 10.988281 -17.910156 12.320312 -17.910156 C 13.707031 -17.910156 14.871094 -17.5 15.808594 -16.6875 C 16.78125 -15.84375 17.269531 -14.722656 17.269531 -13.320312 Z M 17.269531 -12.570312 "/></g></g><g clip-rule="nonzero" clip-path="url(#40c3c5f4bf)"><path style=" stroke:none;fill-rule:nonzero;fill:#767676;fill-opacity:1;" d="M 167.953125 54.609375 C 168.722656 54.835938 169.230469 54.886719 169.300781 54.890625 L 169.363281 54.136719 C 169.304688 54.128906 163.441406 53.5625 159.609375 45.894531 L 159.503906 45.6875 L 157.070312 45.6875 L 157 45.980469 C 156.925781 46.316406 155.015625 54.132812 144.085938 54.132812 C 133.148438 54.132812 131.242188 46.316406 131.164062 45.980469 L 131.097656 45.6875 L 128.664062 45.6875 L 128.558594 45.894531 C 124.722656 53.5625 118.863281 54.128906 118.804688 54.136719 L 118.867188 54.890625 C 118.933594 54.886719 119.445312 54.835938 120.214844 54.609375 L 120.214844 58.785156 L 118.804688 58.785156 L 118.804688 60.113281 L 129.085938 60.113281 L 129.085938 67.136719 L 128.40625 67.136719 L 128.40625 69.289062 L 131.445312 69.289062 L 131.445312 67.136719 L 130.699219 67.136719 L 130.699219 60.113281 L 157.46875 60.113281 L 157.46875 67.136719 L 156.722656 67.136719 L 156.722656 69.289062 L 159.761719 69.289062 L 159.761719 67.136719 L 159.082031 67.136719 L 159.082031 60.113281 L 169.359375 60.113281 L 169.359375 58.785156 L 167.953125 58.785156 Z M 122.492188 58.785156 L 120.640625 58.785156 L 120.640625 54.476562 C 121.175781 54.292969 121.804688 54.035156 122.492188 53.660156 Z M 124.769531 58.785156 L 122.917969 58.785156 L 122.917969 53.410156 C 123.511719 53.058594 124.132812 52.625 124.769531 52.089844 Z M 127.046875 58.785156 L 125.195312 58.785156 L 125.195312 51.714844 C 125.8125 51.152344 126.433594 50.484375 127.046875 49.707031 Z M 129.085938 58.785156 L 127.472656 58.785156 L 127.472656 49.15625 C 128.03125 48.386719 128.574219 47.515625 129.085938 46.523438 Z M 131.601562 58.785156 L 130.699219 58.785156 L 130.699219 46.984375 C 130.882812 47.453125 131.171875 48.082031 131.601562 48.785156 Z M 133.882812 58.785156 L 132.03125 58.785156 L 132.03125 49.433594 C 132.507812 50.109375 133.117188 50.816406 133.882812 51.496094 Z M 136.160156 58.785156 L 134.308594 58.785156 L 134.308594 51.855469 C 134.847656 52.289062 135.464844 52.707031 136.160156 53.082031 Z M 138.4375 58.785156 L 136.585938 58.785156 L 136.585938 53.304688 C 137.152344 53.589844 137.765625 53.84375 138.4375 54.0625 Z M 140.714844 58.785156 L 138.863281 58.785156 L 138.863281 54.191406 C 139.441406 54.363281 140.058594 54.507812 140.714844 54.617188 Z M 142.992188 58.785156 L 141.140625 58.785156 L 141.140625 54.6875 C 141.726562 54.769531 142.34375 54.832031 142.992188 54.863281 Z M 144.75 58.785156 L 143.417969 58.785156 L 143.417969 54.878906 C 143.636719 54.886719 143.855469 54.894531 144.085938 54.894531 C 144.3125 54.894531 144.527344 54.886719 144.75 54.878906 Z M 147.027344 58.785156 L 145.175781 58.785156 L 145.175781 54.863281 C 145.824219 54.832031 146.441406 54.769531 147.027344 54.6875 Z M 149.304688 58.785156 L 147.453125 58.785156 L 147.453125 54.621094 C 148.109375 54.507812 148.726562 54.363281 149.304688 54.191406 Z M 151.582031 58.785156 L 149.730469 58.785156 L 149.730469 54.0625 C 150.398438 53.84375 151.015625 53.585938 151.582031 53.304688 Z M 153.859375 58.785156 L 152.007812 58.785156 L 152.007812 53.082031 C 152.703125 52.707031 153.316406 52.289062 153.859375 51.855469 Z M 156.136719 58.785156 L 154.285156 58.785156 L 154.285156 51.492188 C 155.050781 50.816406 155.660156 50.105469 156.136719 49.433594 Z M 157.46875 58.785156 L 156.5625 58.785156 L 156.5625 48.785156 C 156.996094 48.082031 157.285156 47.453125 157.46875 46.984375 Z M 160.695312 58.785156 L 159.082031 58.785156 L 159.082031 46.523438 C 159.59375 47.515625 160.136719 48.386719 160.695312 49.15625 Z M 162.972656 58.785156 L 161.117188 58.785156 L 161.117188 49.707031 C 161.730469 50.484375 162.351562 51.15625 162.972656 51.714844 Z M 165.25 58.785156 L 163.398438 58.785156 L 163.398438 52.089844 C 164.035156 52.625 164.65625 53.058594 165.25 53.414062 Z M 167.527344 58.785156 L 165.675781 58.785156 L 165.675781 53.660156 C 166.363281 54.035156 166.992188 54.292969 167.527344 54.476562 Z M 167.527344 58.785156 "/></g><g style="fill:#bdbdbd;fill-opacity:1;"><g transform="translate(84.915232, 119.161746)"><path style="stroke:none" d="M 8.453125 -6.1875 L 6.671875 0 L 5.765625 0 L 4.328125 -4.984375 L 2.828125 0 L 1.9375 0.015625 L 0.203125 -6.1875 L 1.0625 -6.1875 L 2.40625 -0.9375 L 3.90625 -6.1875 L 4.8125 -6.1875 L 6.234375 -0.953125 L 7.59375 -6.1875 Z M 8.453125 -6.1875 "/></g></g><g style="fill:#bdbdbd;fill-opacity:1;"><g transform="translate(93.582621, 119.161746)"><path style="stroke:none" d="M 2.796875 0.078125 C 2.347656 0.078125 1.9375 -0.0234375 1.5625 -0.234375 C 1.195312 -0.441406 0.90625 -0.734375 0.6875 -1.109375 C 0.476562 -1.492188 0.375 -1.9375 0.375 -2.4375 C 0.375 -2.9375 0.484375 -3.375 0.703125 -3.75 C 0.921875 -4.132812 1.210938 -4.425781 1.578125 -4.625 C 1.953125 -4.832031 2.375 -4.9375 2.84375 -4.9375 C 3.300781 -4.9375 3.71875 -4.832031 4.09375 -4.625 C 4.46875 -4.425781 4.757812 -4.132812 4.96875 -3.75 C 5.1875 -3.375 5.296875 -2.9375 5.296875 -2.4375 C 5.296875 -1.9375 5.179688 -1.492188 4.953125 -1.109375 C 4.734375 -0.734375 4.4375 -0.441406 4.0625 -0.234375 C 3.6875 -0.0234375 3.265625 0.078125 2.796875 0.078125 Z M 2.796875 -0.625 C 3.085938 -0.625 3.359375 -0.691406 3.609375 -0.828125 C 3.867188 -0.960938 4.078125 -1.164062 4.234375 -1.4375 C 4.390625 -1.71875 4.46875 -2.050781 4.46875 -2.4375 C 4.46875 -2.832031 4.390625 -3.164062 4.234375 -3.4375 C 4.085938 -3.707031 3.890625 -3.910156 3.640625 -4.046875 C 3.390625 -4.179688 3.117188 -4.25 2.828125 -4.25 C 2.535156 -4.25 2.265625 -4.179688 2.015625 -4.046875 C 1.773438 -3.910156 1.578125 -3.707031 1.421875 -3.4375 C 1.273438 -3.164062 1.203125 -2.832031 1.203125 -2.4375 C 1.203125 -2.039062 1.273438 -1.707031 1.421875 -1.4375 C 1.566406 -1.164062 1.757812 -0.960938 2 -0.828125 C 2.25 -0.691406 2.515625 -0.625 2.796875 -0.625 Z M 2.796875 -0.625 "/></g></g><g style="fill:#bdbdbd;fill-opacity:1;"><g transform="translate(99.266152, 119.161746)"><path style="stroke:none" d="M 6.53125 -4.953125 C 6.90625 -4.953125 7.238281 -4.875 7.53125 -4.71875 C 7.832031 -4.5625 8.066406 -4.328125 8.234375 -4.015625 C 8.410156 -3.703125 8.5 -3.316406 8.5 -2.859375 L 8.5 0 L 7.703125 0 L 7.703125 -2.75 C 7.703125 -3.238281 7.582031 -3.609375 7.34375 -3.859375 C 7.101562 -4.117188 6.78125 -4.25 6.375 -4.25 C 5.945312 -4.25 5.609375 -4.113281 5.359375 -3.84375 C 5.117188 -3.570312 5 -3.1875 5 -2.6875 L 5 0 L 4.203125 0 L 4.203125 -2.75 C 4.203125 -3.238281 4.082031 -3.609375 3.84375 -3.859375 C 3.601562 -4.117188 3.273438 -4.25 2.859375 -4.25 C 2.441406 -4.25 2.109375 -4.113281 1.859375 -3.84375 C 1.609375 -3.570312 1.484375 -3.1875 1.484375 -2.6875 L 1.484375 0 L 0.6875 0 L 0.6875 -4.859375 L 1.484375 -4.859375 L 1.484375 -4.15625 C 1.648438 -4.414062 1.863281 -4.613281 2.125 -4.75 C 2.394531 -4.882812 2.695312 -4.953125 3.03125 -4.953125 C 3.4375 -4.953125 3.796875 -4.859375 4.109375 -4.671875 C 4.421875 -4.492188 4.65625 -4.226562 4.8125 -3.875 C 4.945312 -4.21875 5.171875 -4.484375 5.484375 -4.671875 C 5.796875 -4.859375 6.144531 -4.953125 6.53125 -4.953125 Z M 6.53125 -4.953125 "/></g></g><g style="fill:#bdbdbd;fill-opacity:1;"><g transform="translate(108.413083, 119.161746)"><path style="stroke:none" d="M 5.125 -2.625 C 5.125 -2.46875 5.113281 -2.300781 5.09375 -2.125 L 1.203125 -2.125 C 1.234375 -1.644531 1.394531 -1.269531 1.6875 -1 C 1.988281 -0.738281 2.351562 -0.609375 2.78125 -0.609375 C 3.132812 -0.609375 3.425781 -0.6875 3.65625 -0.84375 C 3.894531 -1.007812 4.0625 -1.226562 4.15625 -1.5 L 5.015625 -1.5 C 4.890625 -1.03125 4.628906 -0.648438 4.234375 -0.359375 C 3.847656 -0.0664062 3.363281 0.078125 2.78125 0.078125 C 2.320312 0.078125 1.910156 -0.0234375 1.546875 -0.234375 C 1.179688 -0.441406 0.894531 -0.734375 0.6875 -1.109375 C 0.476562 -1.492188 0.375 -1.9375 0.375 -2.4375 C 0.375 -2.9375 0.472656 -3.375 0.671875 -3.75 C 0.878906 -4.132812 1.164062 -4.425781 1.53125 -4.625 C 1.894531 -4.832031 2.3125 -4.9375 2.78125 -4.9375 C 3.25 -4.9375 3.660156 -4.835938 4.015625 -4.640625 C 4.367188 -4.441406 4.640625 -4.164062 4.828125 -3.8125 C 5.023438 -3.457031 5.125 -3.0625 5.125 -2.625 Z M 4.28125 -2.78125 C 4.28125 -3.09375 4.210938 -3.359375 4.078125 -3.578125 C 3.941406 -3.796875 3.753906 -3.960938 3.515625 -4.078125 C 3.285156 -4.203125 3.03125 -4.265625 2.75 -4.265625 C 2.34375 -4.265625 1.992188 -4.132812 1.703125 -3.875 C 1.421875 -3.613281 1.257812 -3.25 1.21875 -2.78125 Z M 4.28125 -2.78125 "/></g></g><g style="fill:#bdbdbd;fill-opacity:1;"><g transform="translate(113.919007, 119.161746)"><path style="stroke:none" d="M 3.046875 -4.953125 C 3.640625 -4.953125 4.117188 -4.769531 4.484375 -4.40625 C 4.859375 -4.050781 5.046875 -3.535156 5.046875 -2.859375 L 5.046875 0 L 4.25 0 L 4.25 -2.75 C 4.25 -3.238281 4.125 -3.609375 3.875 -3.859375 C 3.632812 -4.117188 3.304688 -4.25 2.890625 -4.25 C 2.460938 -4.25 2.117188 -4.113281 1.859375 -3.84375 C 1.609375 -3.582031 1.484375 -3.195312 1.484375 -2.6875 L 1.484375 0 L 0.6875 0 L 0.6875 -4.859375 L 1.484375 -4.859375 L 1.484375 -4.171875 C 1.648438 -4.421875 1.867188 -4.613281 2.140625 -4.75 C 2.421875 -4.882812 2.722656 -4.953125 3.046875 -4.953125 Z M 3.046875 -4.953125 "/></g></g><g style="fill:#bdbdbd;fill-opacity:1;"><g transform="translate(119.602538, 119.161746)"><path style="stroke:none" d=""/></g></g><g style="fill:#bdbdbd;fill-opacity:1;"><g transform="translate(121.973637, 119.161746)"><path style="stroke:none" d="M 6.953125 -6.140625 L 6.953125 0 L 6.15625 0 L 6.15625 -4.578125 L 4.109375 0 L 3.546875 0 L 1.484375 -4.59375 L 1.484375 0 L 0.6875 0 L 0.6875 -6.140625 L 1.546875 -6.140625 L 3.828125 -1.0625 L 6.09375 -6.140625 Z M 6.953125 -6.140625 "/></g></g><g style="fill:#bdbdbd;fill-opacity:1;"><g transform="translate(129.619763, 119.161746)"><path style="stroke:none" d="M 5.125 -2.625 C 5.125 -2.46875 5.113281 -2.300781 5.09375 -2.125 L 1.203125 -2.125 C 1.234375 -1.644531 1.394531 -1.269531 1.6875 -1 C 1.988281 -0.738281 2.351562 -0.609375 2.78125 -0.609375 C 3.132812 -0.609375 3.425781 -0.6875 3.65625 -0.84375 C 3.894531 -1.007812 4.0625 -1.226562 4.15625 -1.5 L 5.015625 -1.5 C 4.890625 -1.03125 4.628906 -0.648438 4.234375 -0.359375 C 3.847656 -0.0664062 3.363281 0.078125 2.78125 0.078125 C 2.320312 0.078125 1.910156 -0.0234375 1.546875 -0.234375 C 1.179688 -0.441406 0.894531 -0.734375 0.6875 -1.109375 C 0.476562 -1.492188 0.375 -1.9375 0.375 -2.4375 C 0.375 -2.9375 0.472656 -3.375 0.671875 -3.75 C 0.878906 -4.132812 1.164062 -4.425781 1.53125 -4.625 C 1.894531 -4.832031 2.3125 -4.9375 2.78125 -4.9375 C 3.25 -4.9375 3.660156 -4.835938 4.015625 -4.640625 C 4.367188 -4.441406 4.640625 -4.164062 4.828125 -3.8125 C 5.023438 -3.457031 5.125 -3.0625 5.125 -2.625 Z M 4.28125 -2.78125 C 4.28125 -3.09375 4.210938 -3.359375 4.078125 -3.578125 C 3.941406 -3.796875 3.753906 -3.960938 3.515625 -4.078125 C 3.285156 -4.203125 3.03125 -4.265625 2.75 -4.265625 C 2.34375 -4.265625 1.992188 -4.132812 1.703125 -3.875 C 1.421875 -3.613281 1.257812 -3.25 1.21875 -2.78125 Z M 4.28125 -2.78125 "/></g></g><g style="fill:#bdbdbd;fill-opacity:1;"><g transform="translate(135.125687, 119.161746)"><path style="stroke:none" d="M 3.046875 -4.953125 C 3.640625 -4.953125 4.117188 -4.769531 4.484375 -4.40625 C 4.859375 -4.050781 5.046875 -3.535156 5.046875 -2.859375 L 5.046875 0 L 4.25 0 L 4.25 -2.75 C 4.25 -3.238281 4.125 -3.609375 3.875 -3.859375 C 3.632812 -4.117188 3.304688 -4.25 2.890625 -4.25 C 2.460938 -4.25 2.117188 -4.113281 1.859375 -3.84375 C 1.609375 -3.582031 1.484375 -3.195312 1.484375 -2.6875 L 1.484375 0 L 0.6875 0 L 0.6875 -4.859375 L 1.484375 -4.859375 L 1.484375 -4.171875 C 1.648438 -4.421875 1.867188 -4.613281 2.140625 -4.75 C 2.421875 -4.882812 2.722656 -4.953125 3.046875 -4.953125 Z M 3.046875 -4.953125 "/></g></g><g style="fill:#bdbdbd;fill-opacity:1;"><g transform="translate(140.809218, 119.161746)"><path style="stroke:none" d="M 1.671875 -4.203125 L 1.671875 -1.328125 C 1.671875 -1.085938 1.71875 -0.921875 1.8125 -0.828125 C 1.914062 -0.734375 2.09375 -0.6875 2.34375 -0.6875 L 2.9375 -0.6875 L 2.9375 0 L 2.203125 0 C 1.753906 0 1.414062 -0.101562 1.1875 -0.3125 C 0.96875 -0.519531 0.859375 -0.859375 0.859375 -1.328125 L 0.859375 -4.203125 L 0.234375 -4.203125 L 0.234375 -4.859375 L 0.859375 -4.859375 L 0.859375 -6.09375 L 1.671875 -6.09375 L 1.671875 -4.859375 L 2.9375 -4.859375 L 2.9375 -4.203125 Z M 1.671875 -4.203125 "/></g></g><g style="fill:#bdbdbd;fill-opacity:1;"><g transform="translate(144.041729, 119.161746)"><path style="stroke:none" d="M 2.796875 0.078125 C 2.347656 0.078125 1.9375 -0.0234375 1.5625 -0.234375 C 1.195312 -0.441406 0.90625 -0.734375 0.6875 -1.109375 C 0.476562 -1.492188 0.375 -1.9375 0.375 -2.4375 C 0.375 -2.9375 0.484375 -3.375 0.703125 -3.75 C 0.921875 -4.132812 1.210938 -4.425781 1.578125 -4.625 C 1.953125 -4.832031 2.375 -4.9375 2.84375 -4.9375 C 3.300781 -4.9375 3.71875 -4.832031 4.09375 -4.625 C 4.46875 -4.425781 4.757812 -4.132812 4.96875 -3.75 C 5.1875 -3.375 5.296875 -2.9375 5.296875 -2.4375 C 5.296875 -1.9375 5.179688 -1.492188 4.953125 -1.109375 C 4.734375 -0.734375 4.4375 -0.441406 4.0625 -0.234375 C 3.6875 -0.0234375 3.265625 0.078125 2.796875 0.078125 Z M 2.796875 -0.625 C 3.085938 -0.625 3.359375 -0.691406 3.609375 -0.828125 C 3.867188 -0.960938 4.078125 -1.164062 4.234375 -1.4375 C 4.390625 -1.71875 4.46875 -2.050781 4.46875 -2.4375 C 4.46875 -2.832031 4.390625 -3.164062 4.234375 -3.4375 C 4.085938 -3.707031 3.890625 -3.910156 3.640625 -4.046875 C 3.390625 -4.179688 3.117188 -4.25 2.828125 -4.25 C 2.535156 -4.25 2.265625 -4.179688 2.015625 -4.046875 C 1.773438 -3.910156 1.578125 -3.707031 1.421875 -3.4375 C 1.273438 -3.164062 1.203125 -2.832031 1.203125 -2.4375 C 1.203125 -2.039062 1.273438 -1.707031 1.421875 -1.4375 C 1.566406 -1.164062 1.757812 -0.960938 2 -0.828125 C 2.25 -0.691406 2.515625 -0.625 2.796875 -0.625 Z M 2.796875 -0.625 "/></g></g><g style="fill:#bdbdbd;fill-opacity:1;"><g transform="translate(149.72526, 119.161746)"><path style="stroke:none" d="M 1.484375 -4.078125 C 1.628906 -4.347656 1.832031 -4.5625 2.09375 -4.71875 C 2.363281 -4.875 2.6875 -4.953125 3.0625 -4.953125 L 3.0625 -4.125 L 2.84375 -4.125 C 1.9375 -4.125 1.484375 -3.628906 1.484375 -2.640625 L 1.484375 0 L 0.6875 0 L 0.6875 -4.859375 L 1.484375 -4.859375 Z M 1.484375 -4.078125 "/></g></g><g style="fill:#bdbdbd;fill-opacity:1;"><g transform="translate(153.037693, 119.161746)"><path style="stroke:none" d="M 2.40625 0.078125 C 2.03125 0.078125 1.691406 0.015625 1.390625 -0.109375 C 1.097656 -0.234375 0.863281 -0.410156 0.6875 -0.640625 C 0.519531 -0.867188 0.429688 -1.128906 0.421875 -1.421875 L 1.25 -1.421875 C 1.269531 -1.179688 1.382812 -0.984375 1.59375 -0.828125 C 1.800781 -0.679688 2.066406 -0.609375 2.390625 -0.609375 C 2.703125 -0.609375 2.945312 -0.675781 3.125 -0.8125 C 3.300781 -0.945312 3.390625 -1.117188 3.390625 -1.328125 C 3.390625 -1.535156 3.296875 -1.691406 3.109375 -1.796875 C 2.921875 -1.898438 2.628906 -2.003906 2.234375 -2.109375 C 1.867188 -2.203125 1.570312 -2.296875 1.34375 -2.390625 C 1.113281 -2.484375 0.914062 -2.625 0.75 -2.8125 C 0.59375 -3.007812 0.515625 -3.265625 0.515625 -3.578125 C 0.515625 -3.828125 0.585938 -4.054688 0.734375 -4.265625 C 0.878906 -4.472656 1.085938 -4.632812 1.359375 -4.75 C 1.640625 -4.875 1.953125 -4.9375 2.296875 -4.9375 C 2.835938 -4.9375 3.269531 -4.800781 3.59375 -4.53125 C 3.925781 -4.257812 4.109375 -3.890625 4.140625 -3.421875 L 3.328125 -3.421875 C 3.304688 -3.671875 3.203125 -3.875 3.015625 -4.03125 C 2.835938 -4.1875 2.585938 -4.265625 2.265625 -4.265625 C 1.984375 -4.265625 1.753906 -4.203125 1.578125 -4.078125 C 1.410156 -3.953125 1.328125 -3.785156 1.328125 -3.578125 C 1.328125 -3.421875 1.378906 -3.289062 1.484375 -3.1875 C 1.585938 -3.082031 1.71875 -3 1.875 -2.9375 C 2.03125 -2.875 2.242188 -2.804688 2.515625 -2.734375 C 2.867188 -2.640625 3.15625 -2.546875 3.375 -2.453125 C 3.59375 -2.359375 3.78125 -2.21875 3.9375 -2.03125 C 4.09375 -1.851562 4.175781 -1.617188 4.1875 -1.328125 C 4.1875 -1.054688 4.109375 -0.8125 3.953125 -0.59375 C 3.804688 -0.382812 3.597656 -0.21875 3.328125 -0.09375 C 3.054688 0.0195312 2.75 0.078125 2.40625 0.078125 Z M 2.40625 0.078125 "/></g></g><g style="fill:#bdbdbd;fill-opacity:1;"><g transform="translate(157.673321, 119.161746)"><path style="stroke:none" d="M 3.09375 -4.953125 C 3.457031 -4.953125 3.785156 -4.875 4.078125 -4.71875 C 4.378906 -4.5625 4.613281 -4.328125 4.78125 -4.015625 C 4.957031 -3.703125 5.046875 -3.316406 5.046875 -2.859375 L 5.046875 0 L 4.25 0 L 4.25 -2.75 C 4.25 -3.238281 4.125 -3.609375 3.875 -3.859375 C 3.632812 -4.117188 3.304688 -4.25 2.890625 -4.25 C 2.460938 -4.25 2.117188 -4.113281 1.859375 -3.84375 C 1.609375 -3.582031 1.484375 -3.195312 1.484375 -2.6875 L 1.484375 0 L 0.6875 0 L 0.6875 -6.5625 L 1.484375 -6.5625 L 1.484375 -4.171875 C 1.648438 -4.421875 1.875 -4.613281 2.15625 -4.75 C 2.4375 -4.882812 2.75 -4.953125 3.09375 -4.953125 Z M 3.09375 -4.953125 "/></g></g><g style="fill:#bdbdbd;fill-opacity:1;"><g transform="translate(163.356853, 119.161746)"><path style="stroke:none" d="M 1.09375 -5.65625 C 0.945312 -5.65625 0.816406 -5.707031 0.703125 -5.8125 C 0.597656 -5.914062 0.546875 -6.046875 0.546875 -6.203125 C 0.546875 -6.359375 0.597656 -6.488281 0.703125 -6.59375 C 0.816406 -6.695312 0.945312 -6.75 1.09375 -6.75 C 1.25 -6.75 1.378906 -6.695312 1.484375 -6.59375 C 1.585938 -6.488281 1.640625 -6.359375 1.640625 -6.203125 C 1.640625 -6.046875 1.585938 -5.914062 1.484375 -5.8125 C 1.378906 -5.707031 1.25 -5.65625 1.09375 -5.65625 Z M 1.484375 -4.859375 L 1.484375 0 L 0.6875 0 L 0.6875 -4.859375 Z M 1.484375 -4.859375 "/></g></g><g style="fill:#bdbdbd;fill-opacity:1;"><g transform="translate(165.541461, 119.161746)"><path style="stroke:none" d="M 1.484375 -3.96875 C 1.648438 -4.25 1.890625 -4.476562 2.203125 -4.65625 C 2.523438 -4.84375 2.894531 -4.9375 3.3125 -4.9375 C 3.738281 -4.9375 4.128906 -4.832031 4.484375 -4.625 C 4.835938 -4.425781 5.113281 -4.132812 5.3125 -3.75 C 5.519531 -3.375 5.625 -2.941406 5.625 -2.453125 C 5.625 -1.960938 5.519531 -1.523438 5.3125 -1.140625 C 5.113281 -0.753906 4.835938 -0.453125 4.484375 -0.234375 C 4.128906 -0.0234375 3.738281 0.078125 3.3125 0.078125 C 2.894531 0.078125 2.523438 -0.015625 2.203125 -0.203125 C 1.890625 -0.390625 1.648438 -0.617188 1.484375 -0.890625 L 1.484375 2.3125 L 0.6875 2.3125 L 0.6875 -4.859375 L 1.484375 -4.859375 Z M 4.796875 -2.453125 C 4.796875 -2.816406 4.71875 -3.132812 4.5625 -3.40625 C 4.414062 -3.675781 4.21875 -3.882812 3.96875 -4.03125 C 3.71875 -4.175781 3.441406 -4.25 3.140625 -4.25 C 2.847656 -4.25 2.570312 -4.175781 2.3125 -4.03125 C 2.0625 -3.882812 1.859375 -3.671875 1.703125 -3.390625 C 1.554688 -3.117188 1.484375 -2.800781 1.484375 -2.4375 C 1.484375 -2.070312 1.554688 -1.75 1.703125 -1.46875 C 1.859375 -1.195312 2.0625 -0.988281 2.3125 -0.84375 C 2.570312 -0.695312 2.847656 -0.625 3.140625 -0.625 C 3.441406 -0.625 3.71875 -0.695312 3.96875 -0.84375 C 4.21875 -0.988281 4.414062 -1.195312 4.5625 -1.46875 C 4.71875 -1.75 4.796875 -2.078125 4.796875 -2.453125 Z M 4.796875 -2.453125 "/></g></g><g style="fill:#bdbdbd;fill-opacity:1;"><g transform="translate(171.544692, 119.161746)"><path style="stroke:none" d=""/></g></g><g style="fill:#bdbdbd;fill-opacity:1;"><g transform="translate(173.915791, 119.161746)"><path style="stroke:none" d="M 4.8125 -4.375 C 4.8125 -3.863281 4.632812 -3.4375 4.28125 -3.09375 C 3.9375 -2.75 3.40625 -2.578125 2.6875 -2.578125 L 1.484375 -2.578125 L 1.484375 0 L 0.6875 0 L 0.6875 -6.1875 L 2.6875 -6.1875 C 3.382812 -6.1875 3.910156 -6.015625 4.265625 -5.671875 C 4.628906 -5.335938 4.8125 -4.90625 4.8125 -4.375 Z M 2.6875 -3.25 C 3.132812 -3.25 3.460938 -3.34375 3.671875 -3.53125 C 3.890625 -3.726562 4 -4.007812 4 -4.375 C 4 -5.132812 3.5625 -5.515625 2.6875 -5.515625 L 1.484375 -5.515625 L 1.484375 -3.25 Z M 2.6875 -3.25 "/></g></g><g style="fill:#bdbdbd;fill-opacity:1;"><g transform="translate(179.057609, 119.161746)"><path style="stroke:none" d="M 1.484375 -4.078125 C 1.628906 -4.347656 1.832031 -4.5625 2.09375 -4.71875 C 2.363281 -4.875 2.6875 -4.953125 3.0625 -4.953125 L 3.0625 -4.125 L 2.84375 -4.125 C 1.9375 -4.125 1.484375 -3.628906 1.484375 -2.640625 L 1.484375 0 L 0.6875 0 L 0.6875 -4.859375 L 1.484375 -4.859375 Z M 1.484375 -4.078125 "/></g></g><g style="fill:#bdbdbd;fill-opacity:1;"><g transform="translate(182.370042, 119.161746)"><path style="stroke:none" d="M 2.796875 0.078125 C 2.347656 0.078125 1.9375 -0.0234375 1.5625 -0.234375 C 1.195312 -0.441406 0.90625 -0.734375 0.6875 -1.109375 C 0.476562 -1.492188 0.375 -1.9375 0.375 -2.4375 C 0.375 -2.9375 0.484375 -3.375 0.703125 -3.75 C 0.921875 -4.132812 1.210938 -4.425781 1.578125 -4.625 C 1.953125 -4.832031 2.375 -4.9375 2.84375 -4.9375 C 3.300781 -4.9375 3.71875 -4.832031 4.09375 -4.625 C 4.46875 -4.425781 4.757812 -4.132812 4.96875 -3.75 C 5.1875 -3.375 5.296875 -2.9375 5.296875 -2.4375 C 5.296875 -1.9375 5.179688 -1.492188 4.953125 -1.109375 C 4.734375 -0.734375 4.4375 -0.441406 4.0625 -0.234375 C 3.6875 -0.0234375 3.265625 0.078125 2.796875 0.078125 Z M 2.796875 -0.625 C 3.085938 -0.625 3.359375 -0.691406 3.609375 -0.828125 C 3.867188 -0.960938 4.078125 -1.164062 4.234375 -1.4375 C 4.390625 -1.71875 4.46875 -2.050781 4.46875 -2.4375 C 4.46875 -2.832031 4.390625 -3.164062 4.234375 -3.4375 C 4.085938 -3.707031 3.890625 -3.910156 3.640625 -4.046875 C 3.390625 -4.179688 3.117188 -4.25 2.828125 -4.25 C 2.535156 -4.25 2.265625 -4.179688 2.015625 -4.046875 C 1.773438 -3.910156 1.578125 -3.707031 1.421875 -3.4375 C 1.273438 -3.164062 1.203125 -2.832031 1.203125 -2.4375 C 1.203125 -2.039062 1.273438 -1.707031 1.421875 -1.4375 C 1.566406 -1.164062 1.757812 -0.960938 2 -0.828125 C 2.25 -0.691406 2.515625 -0.625 2.796875 -0.625 Z M 2.796875 -0.625 "/></g></g><g style="fill:#bdbdbd;fill-opacity:1;"><g transform="translate(188.053573, 119.161746)"><path style="stroke:none" d="M 2.6875 -4.9375 C 3.101562 -4.9375 3.46875 -4.84375 3.78125 -4.65625 C 4.101562 -4.476562 4.34375 -4.25 4.5 -3.96875 L 4.5 -4.859375 L 5.3125 -4.859375 L 5.3125 0.109375 C 5.3125 0.546875 5.21875 0.9375 5.03125 1.28125 C 4.84375 1.632812 4.570312 1.90625 4.21875 2.09375 C 3.863281 2.289062 3.453125 2.390625 2.984375 2.390625 C 2.347656 2.390625 1.816406 2.238281 1.390625 1.9375 C 0.960938 1.632812 0.710938 1.222656 0.640625 0.703125 L 1.4375 0.703125 C 1.53125 1.003906 1.710938 1.242188 1.984375 1.421875 C 2.265625 1.597656 2.597656 1.6875 2.984375 1.6875 C 3.429688 1.6875 3.796875 1.546875 4.078125 1.265625 C 4.359375 0.992188 4.5 0.609375 4.5 0.109375 L 4.5 -0.921875 C 4.34375 -0.628906 4.101562 -0.390625 3.78125 -0.203125 C 3.46875 -0.015625 3.101562 0.078125 2.6875 0.078125 C 2.257812 0.078125 1.867188 -0.0234375 1.515625 -0.234375 C 1.160156 -0.453125 0.878906 -0.753906 0.671875 -1.140625 C 0.472656 -1.523438 0.375 -1.960938 0.375 -2.453125 C 0.375 -2.941406 0.472656 -3.375 0.671875 -3.75 C 0.878906 -4.132812 1.160156 -4.425781 1.515625 -4.625 C 1.867188 -4.832031 2.257812 -4.9375 2.6875 -4.9375 Z M 4.5 -2.4375 C 4.5 -2.800781 4.425781 -3.117188 4.28125 -3.390625 C 4.132812 -3.671875 3.929688 -3.882812 3.671875 -4.03125 C 3.421875 -4.175781 3.144531 -4.25 2.84375 -4.25 C 2.539062 -4.25 2.265625 -4.175781 2.015625 -4.03125 C 1.773438 -3.882812 1.578125 -3.675781 1.421875 -3.40625 C 1.273438 -3.132812 1.203125 -2.816406 1.203125 -2.453125 C 1.203125 -2.078125 1.273438 -1.75 1.421875 -1.46875 C 1.578125 -1.195312 1.773438 -0.988281 2.015625 -0.84375 C 2.265625 -0.695312 2.539062 -0.625 2.84375 -0.625 C 3.144531 -0.625 3.421875 -0.695312 3.671875 -0.84375 C 3.929688 -0.988281 4.132812 -1.195312 4.28125 -1.46875 C 4.425781 -1.75 4.5 -2.070312 4.5 -2.4375 Z M 4.5 -2.4375 "/></g></g><g style="fill:#bdbdbd;fill-opacity:1;"><g transform="translate(194.056804, 119.161746)"><path style="stroke:none" d="M 1.484375 -4.078125 C 1.628906 -4.347656 1.832031 -4.5625 2.09375 -4.71875 C 2.363281 -4.875 2.6875 -4.953125 3.0625 -4.953125 L 3.0625 -4.125 L 2.84375 -4.125 C 1.9375 -4.125 1.484375 -3.628906 1.484375 -2.640625 L 1.484375 0 L 0.6875 0 L 0.6875 -4.859375 L 1.484375 -4.859375 Z M 1.484375 -4.078125 "/></g></g><g style="fill:#bdbdbd;fill-opacity:1;"><g transform="translate(197.369236, 119.161746)"><path style="stroke:none" d="M 0.375 -2.453125 C 0.375 -2.941406 0.472656 -3.375 0.671875 -3.75 C 0.878906 -4.132812 1.160156 -4.425781 1.515625 -4.625 C 1.867188 -4.832031 2.257812 -4.9375 2.6875 -4.9375 C 3.113281 -4.9375 3.484375 -4.84375 3.796875 -4.65625 C 4.109375 -4.476562 4.34375 -4.25 4.5 -3.96875 L 4.5 -4.859375 L 5.3125 -4.859375 L 5.3125 0 L 4.5 0 L 4.5 -0.90625 C 4.34375 -0.625 4.101562 -0.390625 3.78125 -0.203125 C 3.46875 -0.015625 3.101562 0.078125 2.6875 0.078125 C 2.25 0.078125 1.851562 -0.0234375 1.5 -0.234375 C 1.15625 -0.453125 0.878906 -0.753906 0.671875 -1.140625 C 0.472656 -1.523438 0.375 -1.960938 0.375 -2.453125 Z M 4.5 -2.4375 C 4.5 -2.800781 4.425781 -3.117188 4.28125 -3.390625 C 4.132812 -3.671875 3.929688 -3.882812 3.671875 -4.03125 C 3.421875 -4.175781 3.144531 -4.25 2.84375 -4.25 C 2.539062 -4.25 2.265625 -4.175781 2.015625 -4.03125 C 1.773438 -3.882812 1.578125 -3.675781 1.421875 -3.40625 C 1.273438 -3.132812 1.203125 -2.816406 1.203125 -2.453125 C 1.203125 -2.078125 1.273438 -1.75 1.421875 -1.46875 C 1.578125 -1.195312 1.773438 -0.988281 2.015625 -0.84375 C 2.265625 -0.695312 2.539062 -0.625 2.84375 -0.625 C 3.144531 -0.625 3.421875 -0.695312 3.671875 -0.84375 C 3.929688 -0.988281 4.132812 -1.195312 4.28125 -1.46875 C 4.425781 -1.75 4.5 -2.070312 4.5 -2.4375 Z M 4.5 -2.4375 "/></g></g><g style="fill:#bdbdbd;fill-opacity:1;"><g transform="translate(203.372474, 119.161746)"><path style="stroke:none" d="M 6.53125 -4.953125 C 6.90625 -4.953125 7.238281 -4.875 7.53125 -4.71875 C 7.832031 -4.5625 8.066406 -4.328125 8.234375 -4.015625 C 8.410156 -3.703125 8.5 -3.316406 8.5 -2.859375 L 8.5 0 L 7.703125 0 L 7.703125 -2.75 C 7.703125 -3.238281 7.582031 -3.609375 7.34375 -3.859375 C 7.101562 -4.117188 6.78125 -4.25 6.375 -4.25 C 5.945312 -4.25 5.609375 -4.113281 5.359375 -3.84375 C 5.117188 -3.570312 5 -3.1875 5 -2.6875 L 5 0 L 4.203125 0 L 4.203125 -2.75 C 4.203125 -3.238281 4.082031 -3.609375 3.84375 -3.859375 C 3.601562 -4.117188 3.273438 -4.25 2.859375 -4.25 C 2.441406 -4.25 2.109375 -4.113281 1.859375 -3.84375 C 1.609375 -3.570312 1.484375 -3.1875 1.484375 -2.6875 L 1.484375 0 L 0.6875 0 L 0.6875 -4.859375 L 1.484375 -4.859375 L 1.484375 -4.15625 C 1.648438 -4.414062 1.863281 -4.613281 2.125 -4.75 C 2.394531 -4.882812 2.695312 -4.953125 3.03125 -4.953125 C 3.4375 -4.953125 3.796875 -4.859375 4.109375 -4.671875 C 4.421875 -4.492188 4.65625 -4.226562 4.8125 -3.875 C 4.945312 -4.21875 5.171875 -4.484375 5.484375 -4.671875 C 5.796875 -4.859375 6.144531 -4.953125 6.53125 -4.953125 Z M 6.53125 -4.953125 "/></g></g></g></svg>