<svg xmlns="http://www.w3.org/2000/svg" xmlns:xlink="http://www.w3.org/1999/xlink" width="400" zoomAndPan="magnify" viewBox="0 0 300 179.999997" height="240" preserveAspectRatio="xMidYMid meet" version="1.2"><defs><clipPath id="4a4a2b010c"><path d="M 138.730469 43.710938 L 154 43.710938 L 154 63.960938 L 138.730469 63.960938 Z M 138.730469 43.710938 "/></clipPath><clipPath id="4e9bc31cc9"><path d="M 141.570312 52 L 145 52 L 145 58 L 141.570312 58 Z M 141.570312 52 "/></clipPath><clipPath id="41b2c60346"><path d="M 148 52 L 151.320312 52 L 151.320312 58 L 148 58 Z M 148 52 "/></clipPath><clipPath id="a95a666ccb"><path d="M 144 51.316406 L 148 51.316406 L 148 58.066406 L 144 58.066406 Z M 144 51.316406 "/></clipPath></defs><g id="3bfff9bb1c"><rect x="0" width="300" y="0" height="179.999997" style="fill:#ffffff;fill-opacity:1;stroke:none;"/><rect x="0" width="300" y="0" height="179.999997" style="fill:#ffffff;fill-opacity:1;stroke:none;"/><rect x="0" width="300" y="0" height="179.999997" style="fill:#2c2c2c;fill-opacity:1;stroke:none;"/><g clip-rule="nonzero" clip-path="url(#4a4a2b010c)"><path style=" stroke:none;fill-rule:nonzero;fill:#767676;fill-opacity:1;" d="M 139.867188 50.433594 C 139.800781 50.433594 139.738281 50.460938 139.695312 50.511719 C 139.652344 50.558594 139.628906 50.625 139.636719 50.6875 L 140.429688 59.847656 C 140.441406 59.96875 140.542969 60.0625 140.664062 60.0625 L 152.035156 60.0625 C 152.15625 60.0625 152.257812 59.96875 152.269531 59.847656 L 153.0625 50.6875 C 153.070312 50.625 153.046875 50.558594 153.003906 50.511719 C 152.957031 50.460938 152.894531 50.433594 152.828125 50.433594 Z M 140.125 50.902344 L 152.574219 50.902344 L 151.820312 59.59375 L 140.878906 59.59375 Z M 139.867188 50.667969 L 140.664062 59.828125 L 152.035156 59.828125 L 152.828125 50.667969 Z M 139.59375 47.527344 L 139.648438 48.128906 L 153.050781 48.128906 L 153.101562 47.527344 Z M 139.59375 47.277344 C 139.523438 47.277344 139.457031 47.304688 139.410156 47.355469 C 139.363281 47.410156 139.339844 47.476562 139.34375 47.546875 L 140.75 63.730469 C 140.761719 63.859375 140.871094 63.957031 141 63.957031 L 151.699219 63.957031 C 151.828125 63.957031 151.9375 63.859375 151.949219 63.730469 L 153.351562 47.546875 C 153.359375 47.476562 153.335938 47.410156 153.285156 47.355469 C 153.238281 47.304688 153.171875 47.277344 153.101562 47.277344 Z M 139.867188 47.777344 L 152.828125 47.777344 L 151.46875 63.457031 L 141.230469 63.457031 Z M 139.128906 44.933594 C 138.996094 44.933594 138.882812 45.039062 138.878906 45.171875 L 138.742188 47.511719 C 138.738281 47.582031 138.765625 47.648438 138.8125 47.699219 C 138.859375 47.75 138.925781 47.777344 138.992188 47.777344 L 153.703125 47.777344 C 153.773438 47.777344 153.839844 47.75 153.886719 47.699219 C 153.933594 47.648438 153.957031 47.582031 153.953125 47.511719 L 153.820312 45.171875 C 153.8125 45.039062 153.703125 44.933594 153.570312 44.933594 Z M 139.363281 45.4375 L 153.332031 45.4375 L 153.4375 47.277344 L 139.257812 47.277344 Z M 140.910156 43.710938 C 140.792969 43.710938 140.691406 43.792969 140.664062 43.90625 L 140.386719 45.152344 C 140.371094 45.226562 140.386719 45.304688 140.4375 45.363281 C 140.484375 45.425781 140.554688 45.457031 140.632812 45.457031 L 152.066406 45.457031 C 152.140625 45.457031 152.214844 45.425781 152.261719 45.363281 C 152.308594 45.304688 152.328125 45.226562 152.3125 45.152344 L 152.035156 43.90625 C 152.007812 43.792969 151.90625 43.710938 151.789062 43.710938 Z M 141.109375 44.210938 L 151.585938 44.210938 L 151.753906 44.957031 L 140.945312 44.957031 L 141.109375 44.210938 "/></g><g clip-rule="nonzero" clip-path="url(#4e9bc31cc9)"><path style=" stroke:none;fill-rule:nonzero;fill:#2c2c2c;fill-opacity:1;" d="M 144.023438 57.117188 C 143.878906 57.117188 143.785156 57.070312 143.691406 56.972656 L 141.789062 55.070312 C 141.597656 54.882812 141.597656 54.597656 141.789062 54.40625 L 143.691406 52.503906 C 143.878906 52.316406 144.164062 52.316406 144.355469 52.503906 C 144.546875 52.695312 144.546875 52.980469 144.355469 53.171875 L 142.785156 54.738281 L 144.355469 56.308594 C 144.546875 56.5 144.546875 56.785156 144.355469 56.972656 C 144.261719 57.070312 144.164062 57.117188 144.023438 57.117188 Z M 144.023438 57.117188 "/></g><g clip-rule="nonzero" clip-path="url(#41b2c60346)"><path style=" stroke:none;fill-rule:nonzero;fill:#2c2c2c;fill-opacity:1;" d="M 148.777344 57.117188 C 148.632812 57.117188 148.539062 57.070312 148.445312 56.972656 C 148.253906 56.785156 148.253906 56.5 148.445312 56.308594 L 150.011719 54.738281 L 148.445312 53.171875 C 148.253906 52.980469 148.253906 52.695312 148.445312 52.503906 C 148.632812 52.316406 148.917969 52.316406 149.109375 52.503906 L 151.011719 54.40625 C 151.199219 54.597656 151.199219 54.882812 151.011719 55.070312 L 149.109375 56.972656 C 149.015625 57.070312 148.917969 57.117188 148.777344 57.117188 Z M 148.777344 57.117188 "/></g><g clip-rule="nonzero" clip-path="url(#a95a666ccb)"><path style=" stroke:none;fill-rule:nonzero;fill:#2c2c2c;fill-opacity:1;" d="M 145.449219 58.066406 C 145.402344 58.066406 145.355469 58.066406 145.304688 58.019531 C 145.070312 57.925781 144.925781 57.6875 145.019531 57.402344 L 146.921875 51.695312 C 147.019531 51.460938 147.253906 51.316406 147.539062 51.410156 C 147.777344 51.507812 147.921875 51.746094 147.824219 52.03125 L 145.925781 57.734375 C 145.828125 57.925781 145.640625 58.066406 145.449219 58.066406 Z M 145.449219 58.066406 "/></g><g style="fill:#ffffff;fill-opacity:1;"><g transform="translate(30.931564, 102.989744)"><path style="stroke:none" d="M 30.15625 -31.59375 L 30.15625 0 L 22.453125 0 L 22.453125 -13 L 10.484375 -13 L 10.484375 0 L 2.796875 0 L 2.796875 -31.59375 L 10.484375 -31.59375 L 10.484375 -19.21875 L 22.453125 -19.21875 L 22.453125 -31.59375 Z M 30.15625 -31.59375 "/></g></g><g style="fill:#ffffff;fill-opacity:1;"><g transform="translate(63.820975, 102.989744)"><path style="stroke:none" d="M 1.265625 -12.59375 C 1.265625 -15.175781 1.75 -17.441406 2.71875 -19.390625 C 3.695312 -21.335938 5.023438 -22.835938 6.703125 -23.890625 C 8.378906 -24.941406 10.253906 -25.46875 12.328125 -25.46875 C 14.097656 -25.46875 15.648438 -25.109375 16.984375 -24.390625 C 18.316406 -23.671875 19.34375 -22.726562 20.0625 -21.5625 L 20.0625 -25.109375 L 27.765625 -25.109375 L 27.765625 0 L 20.0625 0 L 20.0625 -3.5625 C 19.3125 -2.382812 18.269531 -1.4375 16.9375 -0.71875 C 15.601562 0 14.050781 0.359375 12.28125 0.359375 C 10.238281 0.359375 8.378906 -0.171875 6.703125 -1.234375 C 5.023438 -2.296875 3.695312 -3.8125 2.71875 -5.78125 C 1.75 -7.75 1.265625 -10.019531 1.265625 -12.59375 Z M 20.0625 -12.5625 C 20.0625 -14.476562 19.53125 -15.988281 18.46875 -17.09375 C 17.40625 -18.207031 16.109375 -18.765625 14.578125 -18.765625 C 13.046875 -18.765625 11.75 -18.21875 10.6875 -17.125 C 9.625 -16.03125 9.09375 -14.519531 9.09375 -12.59375 C 9.09375 -10.675781 9.625 -9.15625 10.6875 -8.03125 C 11.75 -6.90625 13.046875 -6.34375 14.578125 -6.34375 C 16.109375 -6.34375 17.40625 -6.894531 18.46875 -8 C 19.53125 -9.113281 20.0625 -10.632812 20.0625 -12.5625 Z M 20.0625 -12.5625 "/></g></g><g style="fill:#ffffff;fill-opacity:1;"><g transform="translate(94.370785, 102.989744)"><path style="stroke:none" d="M 1.265625 -12.5625 C 1.265625 -15.164062 1.796875 -17.441406 2.859375 -19.390625 C 3.921875 -21.335938 5.40625 -22.835938 7.3125 -23.890625 C 9.21875 -24.941406 11.398438 -25.46875 13.859375 -25.46875 C 17.003906 -25.46875 19.632812 -24.640625 21.75 -22.984375 C 23.875 -21.335938 25.265625 -19.015625 25.921875 -16.015625 L 17.734375 -16.015625 C 17.035156 -17.941406 15.695312 -18.90625 13.71875 -18.90625 C 12.3125 -18.90625 11.1875 -18.351562 10.34375 -17.25 C 9.507812 -16.15625 9.09375 -14.59375 9.09375 -12.5625 C 9.09375 -10.519531 9.507812 -8.945312 10.34375 -7.84375 C 11.1875 -6.75 12.3125 -6.203125 13.71875 -6.203125 C 15.695312 -6.203125 17.035156 -7.164062 17.734375 -9.09375 L 25.921875 -9.09375 C 25.265625 -6.15625 23.867188 -3.84375 21.734375 -2.15625 C 19.609375 -0.476562 16.984375 0.359375 13.859375 0.359375 C 11.398438 0.359375 9.21875 -0.164062 7.3125 -1.21875 C 5.40625 -2.269531 3.921875 -3.769531 2.859375 -5.71875 C 1.796875 -7.664062 1.265625 -9.945312 1.265625 -12.5625 Z M 1.265625 -12.5625 "/></g></g><g style="fill:#ffffff;fill-opacity:1;"><g transform="translate(121.591164, 102.989744)"><path style="stroke:none" d="M 18.140625 0 L 10.484375 -10.53125 L 10.484375 0 L 2.796875 0 L 2.796875 -33.296875 L 10.484375 -33.296875 L 10.484375 -14.890625 L 18.09375 -25.109375 L 27.578125 -25.109375 L 17.140625 -12.515625 L 27.671875 0 Z M 18.140625 0 "/></g></g><g style="fill:#41bda9;fill-opacity:1;"><g transform="translate(152.039737, 102.989744)"><path style="stroke:none" d="M 22.085938 -17.023438 C 24.117188 -16.589844 25.75 -15.582031 26.988281 -13.992188 C 28.214844 -12.417969 28.828125 -10.617188 28.828125 -8.59375 C 28.828125 -5.691406 27.804688 -3.382812 25.761719 -1.671875 C 23.757812 0.00390625 21.007812 0.84375 17.503906 0.84375 L 1.945312 0.84375 L 1.945312 -32.429688 L 17.007812 -32.429688 C 20.417969 -32.429688 23.105469 -31.632812 25.074219 -30.035156 C 27.097656 -28.398438 28.109375 -26.183594 28.109375 -23.394531 C 28.109375 -21.339844 27.5625 -19.621094 26.464844 -18.238281 C 25.378906 -16.867188 23.941406 -15.917969 22.152344 -15.386719 L 21.910156 -16.199219 Z M 21.734375 -15.371094 L 21.671875 -17.007812 C 23.121094 -17.4375 24.277344 -18.195312 25.140625 -19.285156 C 25.996094 -20.363281 26.421875 -21.734375 26.421875 -23.394531 C 26.421875 -25.648438 25.617188 -27.425781 24.011719 -28.726562 C 22.351562 -30.070312 20.019531 -30.742188 17.007812 -30.742188 L 2.789062 -30.742188 L 2.789062 -31.585938 L 3.632812 -31.585938 L 3.632812 0 L 2.789062 0 L 2.789062 -0.84375 L 17.503906 -0.84375 C 20.597656 -0.84375 22.988281 -1.550781 24.675781 -2.964844 C 26.320312 -4.339844 27.140625 -6.214844 27.140625 -8.59375 C 27.140625 -10.230469 26.648438 -11.683594 25.65625 -12.957031 C 24.671875 -14.21875 23.363281 -15.023438 21.734375 -15.371094 Z M 10.484375 -19.652344 L 15.523438 -19.652344 C 16.582031 -19.652344 17.371094 -19.863281 17.890625 -20.292969 C 18.359375 -20.675781 18.59375 -21.277344 18.59375 -22.089844 C 18.59375 -22.910156 18.355469 -23.519531 17.878906 -23.921875 C 17.363281 -24.359375 16.578125 -24.578125 15.523438 -24.578125 L 10.484375 -24.578125 L 10.484375 -25.421875 L 11.328125 -25.421875 L 11.328125 -18.808594 L 10.484375 -18.808594 Z M 9.640625 -17.964844 L 9.640625 -26.265625 L 15.523438 -26.265625 C 16.988281 -26.265625 18.136719 -25.914062 18.96875 -25.210938 C 19.84375 -24.472656 20.28125 -23.433594 20.28125 -22.089844 C 20.28125 -20.746094 19.839844 -19.710938 18.960938 -18.988281 C 18.128906 -18.304688 16.984375 -17.964844 15.523438 -17.964844 Z M 16.152344 -7.050781 C 17.238281 -7.050781 18.058594 -7.28125 18.605469 -7.734375 C 19.109375 -8.152344 19.359375 -8.78125 19.359375 -9.628906 C 19.359375 -10.480469 19.089844 -11.136719 18.550781 -11.597656 C 17.972656 -12.09375 17.144531 -12.339844 16.0625 -12.339844 L 10.484375 -12.339844 L 10.484375 -13.183594 L 11.328125 -13.183594 L 11.328125 -6.210938 L 10.484375 -6.210938 L 10.484375 -7.050781 Z M 16.152344 -5.367188 L 9.640625 -5.367188 L 9.640625 -14.027344 L 16.0625 -14.027344 C 17.558594 -14.027344 18.753906 -13.644531 19.648438 -12.878906 C 20.578125 -12.082031 21.046875 -10.996094 21.046875 -9.628906 C 21.046875 -8.253906 20.589844 -7.191406 19.683594 -6.4375 C 18.820312 -5.722656 17.644531 -5.367188 16.152344 -5.367188 Z M 16.152344 -5.367188 "/></g></g><g style="fill:#41bda9;fill-opacity:1;"><g transform="translate(181.689699, 102.989744)"><path style="stroke:none" d="M 9.777344 -21.382812 C 10.75 -22.871094 11.964844 -24.050781 13.429688 -24.910156 C 14.910156 -25.785156 16.554688 -26.21875 18.355469 -26.21875 L 19.199219 -26.21875 L 19.199219 -16.390625 L 16.242188 -16.390625 C 14.53125 -16.390625 13.273438 -16.042969 12.472656 -15.355469 C 11.710938 -14.699219 11.328125 -13.464844 11.328125 -11.652344 L 11.328125 0.84375 L 1.945312 0.84375 L 1.945312 -25.949219 L 11.328125 -25.949219 L 11.328125 -20.921875 L 10.484375 -20.921875 Z M 9.640625 -18.082031 L 9.640625 -25.105469 L 10.484375 -25.105469 L 10.484375 -24.261719 L 2.789062 -24.261719 L 2.789062 -25.105469 L 3.632812 -25.105469 L 3.632812 0 L 2.789062 0 L 2.789062 -0.84375 L 10.484375 -0.84375 L 10.484375 0 L 9.640625 0 L 9.640625 -11.652344 C 9.640625 -13.980469 10.21875 -15.640625 11.375 -16.636719 C 12.492188 -17.59375 14.113281 -18.074219 16.242188 -18.074219 L 18.355469 -18.074219 L 18.355469 -17.230469 L 17.511719 -17.230469 L 17.511719 -25.375 L 18.355469 -25.375 L 18.355469 -24.53125 C 16.859375 -24.53125 15.503906 -24.175781 14.285156 -23.457031 C 13.050781 -22.730469 12.019531 -21.730469 11.191406 -20.460938 Z M 9.640625 -18.082031 "/></g></g><g style="fill:#41bda9;fill-opacity:1;"><g transform="translate(200.946426, 102.989744)"><path style="stroke:none" d="M 27.300781 -12.957031 C 27.300781 -12.207031 27.253906 -11.421875 27.160156 -10.613281 L 27.074219 -9.863281 L 8.910156 -9.863281 L 8.910156 -10.707031 L 9.75 -10.773438 C 9.851562 -9.433594 10.265625 -8.425781 10.992188 -7.75 C 11.714844 -7.074219 12.609375 -6.738281 13.679688 -6.738281 C 14.480469 -6.738281 15.148438 -6.898438 15.679688 -7.222656 C 16.203125 -7.539062 16.613281 -8.023438 16.917969 -8.679688 L 17.144531 -9.167969 L 26.957031 -9.167969 L 26.6875 -8.117188 C 26.238281 -6.34375 25.425781 -4.75 24.25 -3.332031 C 23.070312 -1.910156 21.597656 -0.800781 19.832031 0.00390625 C 18.070312 0.804688 16.109375 1.203125 13.949219 1.203125 C 11.34375 1.203125 9.019531 0.644531 6.972656 -0.476562 C 4.910156 -1.601562 3.300781 -3.214844 2.140625 -5.304688 C 0.992188 -7.382812 0.417969 -9.796875 0.417969 -12.554688 C 0.417969 -15.304688 0.984375 -17.722656 2.117188 -19.796875 C 3.261719 -21.890625 4.863281 -23.503906 6.929688 -24.632812 C 8.976562 -25.75 11.316406 -26.308594 13.949219 -26.308594 C 16.519531 -26.308594 18.8125 -25.765625 20.828125 -24.679688 C 22.859375 -23.582031 24.449219 -22.015625 25.59375 -19.984375 C 26.730469 -17.96875 27.300781 -15.625 27.300781 -12.957031 Z M 25.613281 -12.957031 C 25.613281 -15.332031 25.117188 -17.398438 24.125 -19.15625 C 23.140625 -20.90625 21.773438 -22.25 20.027344 -23.195312 C 18.261719 -24.144531 16.234375 -24.621094 13.949219 -24.621094 C 11.601562 -24.621094 9.53125 -24.132812 7.738281 -23.152344 C 5.964844 -22.179688 4.582031 -20.792969 3.597656 -18.988281 C 2.601562 -17.164062 2.101562 -15.019531 2.101562 -12.554688 C 2.101562 -10.089844 2.609375 -7.945312 3.617188 -6.121094 C 4.617188 -4.316406 6.007812 -2.925781 7.785156 -1.953125 C 9.578125 -0.972656 11.632812 -0.484375 13.949219 -0.484375 C 15.867188 -0.484375 17.59375 -0.832031 19.132812 -1.53125 C 20.664062 -2.230469 21.9375 -3.1875 22.949219 -4.40625 C 23.964844 -5.628906 24.664062 -7.003906 25.054688 -8.53125 L 25.871094 -8.324219 L 25.871094 -7.480469 L 17.683594 -7.480469 L 17.683594 -8.324219 L 18.449219 -7.96875 C 18 -7.003906 17.371094 -6.273438 16.554688 -5.78125 C 15.753906 -5.292969 14.796875 -5.050781 13.679688 -5.050781 C 12.167969 -5.050781 10.886719 -5.539062 9.839844 -6.515625 C 8.796875 -7.488281 8.203125 -8.863281 8.066406 -10.644531 L 7.996094 -11.550781 L 26.320312 -11.550781 L 26.320312 -10.707031 L 25.484375 -10.804688 C 25.570312 -11.554688 25.613281 -12.269531 25.613281 -12.957031 Z M 17.738281 -14.984375 C 17.738281 -16.046875 17.386719 -16.882812 16.679688 -17.496094 C 15.9375 -18.136719 14.996094 -18.457031 13.859375 -18.457031 C 12.773438 -18.457031 11.867188 -18.148438 11.140625 -17.535156 C 10.417969 -16.921875 9.964844 -16.027344 9.789062 -14.855469 L 8.953125 -14.984375 L 8.953125 -15.828125 L 18.582031 -15.828125 L 18.582031 -14.984375 Z M 19.425781 -14.140625 L 7.972656 -14.140625 L 8.121094 -15.109375 C 8.359375 -16.699219 9.003906 -17.933594 10.050781 -18.820312 C 11.09375 -19.703125 12.363281 -20.144531 13.859375 -20.144531 C 15.417969 -20.144531 16.726562 -19.6875 17.785156 -18.769531 C 18.878906 -17.820312 19.425781 -16.558594 19.425781 -14.984375 Z M 19.425781 -14.140625 "/></g></g><g style="fill:#41bda9;fill-opacity:1;"><g transform="translate(228.661721, 102.989744)"><path style="stroke:none" d="M 39.644531 -24.886719 L 32.679688 0.84375 L 22.867188 0.84375 L 18.753906 -16.089844 L 19.570312 -16.289062 L 20.390625 -16.082031 L 16.136719 0.84375 L 6.375 0.84375 L -0.925781 -25.949219 L 8.566406 -25.949219 L 12.253906 -7.316406 L 11.429688 -7.152344 L 10.605469 -7.347656 L 14.988281 -25.949219 L 24.46875 -25.949219 L 28.894531 -7.441406 L 28.074219 -7.242188 L 27.246094 -7.40625 L 30.890625 -25.949219 L 39.929688 -25.949219 Z M 38.015625 -25.328125 L 38.828125 -25.105469 L 38.828125 -24.261719 L 31.585938 -24.261719 L 31.585938 -25.105469 L 32.414062 -24.945312 L 28.902344 -7.082031 L 27.253906 -7.046875 L 22.980469 -24.910156 L 23.800781 -25.105469 L 23.800781 -24.261719 L 15.65625 -24.261719 L 15.65625 -25.105469 L 16.480469 -24.914062 L 12.25 -6.960938 L 10.601562 -6.988281 L 7.046875 -24.941406 L 7.875 -25.105469 L 7.875 -24.261719 L 0.179688 -24.261719 L 0.179688 -25.105469 L 0.992188 -25.328125 L 7.832031 -0.222656 L 7.019531 0 L 7.019531 -0.84375 L 15.476562 -0.84375 L 15.476562 0 L 14.660156 -0.207031 L 18.753906 -16.492188 L 20.390625 -16.488281 L 24.351562 -0.199219 L 23.53125 0 L 23.53125 -0.84375 L 32.035156 -0.84375 L 32.035156 0 L 31.222656 -0.21875 Z M 38.015625 -25.328125 "/></g></g><g style="fill:#bdbdbd;fill-opacity:1;"><g transform="translate(73.132556, 119.911746)"><path style="stroke:none" d="M 4.34375 -1.375 L 1.640625 -1.375 L 1.140625 0 L 0.296875 0 L 2.53125 -6.15625 L 3.46875 -6.15625 L 5.6875 0 L 4.84375 0 Z M 4.109375 -2.03125 L 2.984375 -5.15625 L 1.875 -2.03125 Z M 4.109375 -2.03125 "/></g></g><g style="fill:#bdbdbd;fill-opacity:1;"><g transform="translate(79.118022, 119.911746)"><path style="stroke:none" d="M 3.046875 -4.953125 C 3.640625 -4.953125 4.117188 -4.769531 4.484375 -4.40625 C 4.859375 -4.050781 5.046875 -3.535156 5.046875 -2.859375 L 5.046875 0 L 4.25 0 L 4.25 -2.75 C 4.25 -3.238281 4.125 -3.609375 3.875 -3.859375 C 3.632812 -4.117188 3.304688 -4.25 2.890625 -4.25 C 2.460938 -4.25 2.117188 -4.113281 1.859375 -3.84375 C 1.609375 -3.582031 1.484375 -3.195312 1.484375 -2.6875 L 1.484375 0 L 0.6875 0 L 0.6875 -4.859375 L 1.484375 -4.859375 L 1.484375 -4.171875 C 1.648438 -4.421875 1.867188 -4.613281 2.140625 -4.75 C 2.421875 -4.882812 2.722656 -4.953125 3.046875 -4.953125 Z M 3.046875 -4.953125 "/></g></g><g style="fill:#bdbdbd;fill-opacity:1;"><g transform="translate(84.801553, 119.911746)"><path style="stroke:none" d=""/></g></g><g style="fill:#bdbdbd;fill-opacity:1;"><g transform="translate(87.172652, 119.911746)"><path style="stroke:none" d="M 1.09375 -5.65625 C 0.945312 -5.65625 0.816406 -5.707031 0.703125 -5.8125 C 0.597656 -5.914062 0.546875 -6.046875 0.546875 -6.203125 C 0.546875 -6.359375 0.597656 -6.488281 0.703125 -6.59375 C 0.816406 -6.695312 0.945312 -6.75 1.09375 -6.75 C 1.25 -6.75 1.378906 -6.695312 1.484375 -6.59375 C 1.585938 -6.488281 1.640625 -6.359375 1.640625 -6.203125 C 1.640625 -6.046875 1.585938 -5.914062 1.484375 -5.8125 C 1.378906 -5.707031 1.25 -5.65625 1.09375 -5.65625 Z M 1.484375 -4.859375 L 1.484375 0 L 0.6875 0 L 0.6875 -4.859375 Z M 1.484375 -4.859375 "/></g></g><g style="fill:#bdbdbd;fill-opacity:1;"><g transform="translate(89.35726, 119.911746)"><path style="stroke:none" d="M 3.046875 -4.953125 C 3.640625 -4.953125 4.117188 -4.769531 4.484375 -4.40625 C 4.859375 -4.050781 5.046875 -3.535156 5.046875 -2.859375 L 5.046875 0 L 4.25 0 L 4.25 -2.75 C 4.25 -3.238281 4.125 -3.609375 3.875 -3.859375 C 3.632812 -4.117188 3.304688 -4.25 2.890625 -4.25 C 2.460938 -4.25 2.117188 -4.113281 1.859375 -3.84375 C 1.609375 -3.582031 1.484375 -3.195312 1.484375 -2.6875 L 1.484375 0 L 0.6875 0 L 0.6875 -4.859375 L 1.484375 -4.859375 L 1.484375 -4.171875 C 1.648438 -4.421875 1.867188 -4.613281 2.140625 -4.75 C 2.421875 -4.882812 2.722656 -4.953125 3.046875 -4.953125 Z M 3.046875 -4.953125 "/></g></g><g style="fill:#bdbdbd;fill-opacity:1;"><g transform="translate(95.040791, 119.911746)"><path style="stroke:none" d="M 0.375 -2.4375 C 0.375 -2.9375 0.472656 -3.375 0.671875 -3.75 C 0.878906 -4.132812 1.160156 -4.425781 1.515625 -4.625 C 1.878906 -4.832031 2.289062 -4.9375 2.75 -4.9375 C 3.34375 -4.9375 3.832031 -4.789062 4.21875 -4.5 C 4.613281 -4.21875 4.875 -3.816406 5 -3.296875 L 4.125 -3.296875 C 4.039062 -3.597656 3.878906 -3.832031 3.640625 -4 C 3.398438 -4.175781 3.101562 -4.265625 2.75 -4.265625 C 2.289062 -4.265625 1.914062 -4.101562 1.625 -3.78125 C 1.34375 -3.46875 1.203125 -3.019531 1.203125 -2.4375 C 1.203125 -1.851562 1.34375 -1.398438 1.625 -1.078125 C 1.914062 -0.765625 2.289062 -0.609375 2.75 -0.609375 C 3.101562 -0.609375 3.398438 -0.6875 3.640625 -0.84375 C 3.878906 -1.007812 4.039062 -1.25 4.125 -1.5625 L 5 -1.5625 C 4.863281 -1.0625 4.597656 -0.660156 4.203125 -0.359375 C 3.816406 -0.0664062 3.332031 0.078125 2.75 0.078125 C 2.289062 0.078125 1.878906 -0.0234375 1.515625 -0.234375 C 1.160156 -0.441406 0.878906 -0.734375 0.671875 -1.109375 C 0.472656 -1.484375 0.375 -1.925781 0.375 -2.4375 Z M 0.375 -2.4375 "/></g></g><g style="fill:#bdbdbd;fill-opacity:1;"><g transform="translate(100.431264, 119.911746)"><path style="stroke:none" d="M 1.484375 -6.5625 L 1.484375 0 L 0.6875 0 L 0.6875 -6.5625 Z M 1.484375 -6.5625 "/></g></g><g style="fill:#bdbdbd;fill-opacity:1;"><g transform="translate(102.615872, 119.911746)"><path style="stroke:none" d="M 5 -4.859375 L 5 0 L 4.1875 0 L 4.1875 -0.71875 C 4.03125 -0.46875 3.816406 -0.269531 3.546875 -0.125 C 3.273438 0.0078125 2.972656 0.078125 2.640625 0.078125 C 2.253906 0.078125 1.910156 0 1.609375 -0.15625 C 1.304688 -0.320312 1.066406 -0.5625 0.890625 -0.875 C 0.722656 -1.1875 0.640625 -1.566406 0.640625 -2.015625 L 0.640625 -4.859375 L 1.4375 -4.859375 L 1.4375 -2.125 C 1.4375 -1.644531 1.554688 -1.273438 1.796875 -1.015625 C 2.046875 -0.753906 2.378906 -0.625 2.796875 -0.625 C 3.222656 -0.625 3.5625 -0.753906 3.8125 -1.015625 C 4.0625 -1.285156 4.1875 -1.675781 4.1875 -2.1875 L 4.1875 -4.859375 Z M 5 -4.859375 "/></g></g><g style="fill:#bdbdbd;fill-opacity:1;"><g transform="translate(108.299404, 119.911746)"><path style="stroke:none" d="M 2.40625 0.078125 C 2.03125 0.078125 1.691406 0.015625 1.390625 -0.109375 C 1.097656 -0.234375 0.863281 -0.410156 0.6875 -0.640625 C 0.519531 -0.867188 0.429688 -1.128906 0.421875 -1.421875 L 1.25 -1.421875 C 1.269531 -1.179688 1.382812 -0.984375 1.59375 -0.828125 C 1.800781 -0.679688 2.066406 -0.609375 2.390625 -0.609375 C 2.703125 -0.609375 2.945312 -0.675781 3.125 -0.8125 C 3.300781 -0.945312 3.390625 -1.117188 3.390625 -1.328125 C 3.390625 -1.535156 3.296875 -1.691406 3.109375 -1.796875 C 2.921875 -1.898438 2.628906 -2.003906 2.234375 -2.109375 C 1.867188 -2.203125 1.570312 -2.296875 1.34375 -2.390625 C 1.113281 -2.484375 0.914062 -2.625 0.75 -2.8125 C 0.59375 -3.007812 0.515625 -3.265625 0.515625 -3.578125 C 0.515625 -3.828125 0.585938 -4.054688 0.734375 -4.265625 C 0.878906 -4.472656 1.085938 -4.632812 1.359375 -4.75 C 1.640625 -4.875 1.953125 -4.9375 2.296875 -4.9375 C 2.835938 -4.9375 3.269531 -4.800781 3.59375 -4.53125 C 3.925781 -4.257812 4.109375 -3.890625 4.140625 -3.421875 L 3.328125 -3.421875 C 3.304688 -3.671875 3.203125 -3.875 3.015625 -4.03125 C 2.835938 -4.1875 2.585938 -4.265625 2.265625 -4.265625 C 1.984375 -4.265625 1.753906 -4.203125 1.578125 -4.078125 C 1.410156 -3.953125 1.328125 -3.785156 1.328125 -3.578125 C 1.328125 -3.421875 1.378906 -3.289062 1.484375 -3.1875 C 1.585938 -3.082031 1.71875 -3 1.875 -2.9375 C 2.03125 -2.875 2.242188 -2.804688 2.515625 -2.734375 C 2.867188 -2.640625 3.15625 -2.546875 3.375 -2.453125 C 3.59375 -2.359375 3.78125 -2.21875 3.9375 -2.03125 C 4.09375 -1.851562 4.175781 -1.617188 4.1875 -1.328125 C 4.1875 -1.054688 4.109375 -0.8125 3.953125 -0.59375 C 3.804688 -0.382812 3.597656 -0.21875 3.328125 -0.09375 C 3.054688 0.0195312 2.75 0.078125 2.40625 0.078125 Z M 2.40625 0.078125 "/></g></g><g style="fill:#bdbdbd;fill-opacity:1;"><g transform="translate(112.935032, 119.911746)"><path style="stroke:none" d="M 1.09375 -5.65625 C 0.945312 -5.65625 0.816406 -5.707031 0.703125 -5.8125 C 0.597656 -5.914062 0.546875 -6.046875 0.546875 -6.203125 C 0.546875 -6.359375 0.597656 -6.488281 0.703125 -6.59375 C 0.816406 -6.695312 0.945312 -6.75 1.09375 -6.75 C 1.25 -6.75 1.378906 -6.695312 1.484375 -6.59375 C 1.585938 -6.488281 1.640625 -6.359375 1.640625 -6.203125 C 1.640625 -6.046875 1.585938 -5.914062 1.484375 -5.8125 C 1.378906 -5.707031 1.25 -5.65625 1.09375 -5.65625 Z M 1.484375 -4.859375 L 1.484375 0 L 0.6875 0 L 0.6875 -4.859375 Z M 1.484375 -4.859375 "/></g></g><g style="fill:#bdbdbd;fill-opacity:1;"><g transform="translate(115.119641, 119.911746)"><path style="stroke:none" d="M 2.5 -0.75 L 4 -4.859375 L 4.859375 -4.859375 L 2.953125 0 L 2.015625 0 L 0.109375 -4.859375 L 0.96875 -4.859375 Z M 2.5 -0.75 "/></g></g><g style="fill:#bdbdbd;fill-opacity:1;"><g transform="translate(120.10161, 119.911746)"><path style="stroke:none" d="M 5.125 -2.625 C 5.125 -2.46875 5.113281 -2.300781 5.09375 -2.125 L 1.203125 -2.125 C 1.234375 -1.644531 1.394531 -1.269531 1.6875 -1 C 1.988281 -0.738281 2.351562 -0.609375 2.78125 -0.609375 C 3.132812 -0.609375 3.425781 -0.6875 3.65625 -0.84375 C 3.894531 -1.007812 4.0625 -1.226562 4.15625 -1.5 L 5.015625 -1.5 C 4.890625 -1.03125 4.628906 -0.648438 4.234375 -0.359375 C 3.847656 -0.0664062 3.363281 0.078125 2.78125 0.078125 C 2.320312 0.078125 1.910156 -0.0234375 1.546875 -0.234375 C 1.179688 -0.441406 0.894531 -0.734375 0.6875 -1.109375 C 0.476562 -1.492188 0.375 -1.9375 0.375 -2.4375 C 0.375 -2.9375 0.472656 -3.375 0.671875 -3.75 C 0.878906 -4.132812 1.164062 -4.425781 1.53125 -4.625 C 1.894531 -4.832031 2.3125 -4.9375 2.78125 -4.9375 C 3.25 -4.9375 3.660156 -4.835938 4.015625 -4.640625 C 4.367188 -4.441406 4.640625 -4.164062 4.828125 -3.8125 C 5.023438 -3.457031 5.125 -3.0625 5.125 -2.625 Z M 4.28125 -2.78125 C 4.28125 -3.09375 4.210938 -3.359375 4.078125 -3.578125 C 3.941406 -3.796875 3.753906 -3.960938 3.515625 -4.078125 C 3.285156 -4.203125 3.03125 -4.265625 2.75 -4.265625 C 2.34375 -4.265625 1.992188 -4.132812 1.703125 -3.875 C 1.421875 -3.613281 1.257812 -3.25 1.21875 -2.78125 Z M 4.28125 -2.78125 "/></g></g><g style="fill:#bdbdbd;fill-opacity:1;"><g transform="translate(125.607533, 119.911746)"><path style="stroke:none" d=""/></g></g><g style="fill:#bdbdbd;fill-opacity:1;"><g transform="translate(127.978632, 119.911746)"><path style="stroke:none" d="M 0.375 -2.453125 C 0.375 -2.941406 0.472656 -3.375 0.671875 -3.75 C 0.878906 -4.132812 1.160156 -4.425781 1.515625 -4.625 C 1.867188 -4.832031 2.257812 -4.9375 2.6875 -4.9375 C 3.113281 -4.9375 3.484375 -4.84375 3.796875 -4.65625 C 4.109375 -4.476562 4.34375 -4.25 4.5 -3.96875 L 4.5 -4.859375 L 5.3125 -4.859375 L 5.3125 0 L 4.5 0 L 4.5 -0.90625 C 4.34375 -0.625 4.101562 -0.390625 3.78125 -0.203125 C 3.46875 -0.015625 3.101562 0.078125 2.6875 0.078125 C 2.25 0.078125 1.851562 -0.0234375 1.5 -0.234375 C 1.15625 -0.453125 0.878906 -0.753906 0.671875 -1.140625 C 0.472656 -1.523438 0.375 -1.960938 0.375 -2.453125 Z M 4.5 -2.4375 C 4.5 -2.800781 4.425781 -3.117188 4.28125 -3.390625 C 4.132812 -3.671875 3.929688 -3.882812 3.671875 -4.03125 C 3.421875 -4.175781 3.144531 -4.25 2.84375 -4.25 C 2.539062 -4.25 2.265625 -4.175781 2.015625 -4.03125 C 1.773438 -3.882812 1.578125 -3.675781 1.421875 -3.40625 C 1.273438 -3.132812 1.203125 -2.816406 1.203125 -2.453125 C 1.203125 -2.078125 1.273438 -1.75 1.421875 -1.46875 C 1.578125 -1.195312 1.773438 -0.988281 2.015625 -0.84375 C 2.265625 -0.695312 2.539062 -0.625 2.84375 -0.625 C 3.144531 -0.625 3.421875 -0.695312 3.671875 -0.84375 C 3.929688 -0.988281 4.132812 -1.195312 4.28125 -1.46875 C 4.425781 -1.75 4.5 -2.070312 4.5 -2.4375 Z M 4.5 -2.4375 "/></g></g><g style="fill:#bdbdbd;fill-opacity:1;"><g transform="translate(133.981863, 119.911746)"><path style="stroke:none" d="M 1.484375 -6.5625 L 1.484375 0 L 0.6875 0 L 0.6875 -6.5625 Z M 1.484375 -6.5625 "/></g></g><g style="fill:#bdbdbd;fill-opacity:1;"><g transform="translate(136.166471, 119.911746)"><path style="stroke:none" d="M 1.484375 -6.5625 L 1.484375 0 L 0.6875 0 L 0.6875 -6.5625 Z M 1.484375 -6.5625 "/></g></g><g style="fill:#bdbdbd;fill-opacity:1;"><g transform="translate(138.35108, 119.911746)"><path style="stroke:none" d="M 4.0625 -3.59375 L 4.0625 -2.90625 L 0.515625 -2.90625 L 0.515625 -3.59375 Z M 4.0625 -3.59375 "/></g></g><g style="fill:#bdbdbd;fill-opacity:1;"><g transform="translate(143.244245, 119.911746)"><path style="stroke:none" d="M 7.15625 -4.859375 L 5.640625 0 L 4.8125 0 L 3.640625 -3.859375 L 2.46875 0 L 1.640625 0 L 0.109375 -4.859375 L 0.9375 -4.859375 L 2.046875 -0.78125 L 3.25 -4.859375 L 4.078125 -4.859375 L 5.265625 -0.765625 L 6.359375 -4.859375 Z M 7.15625 -4.859375 "/></g></g><g style="fill:#bdbdbd;fill-opacity:1;"><g transform="translate(150.526267, 119.911746)"><path style="stroke:none" d="M 2.796875 0.078125 C 2.347656 0.078125 1.9375 -0.0234375 1.5625 -0.234375 C 1.195312 -0.441406 0.90625 -0.734375 0.6875 -1.109375 C 0.476562 -1.492188 0.375 -1.9375 0.375 -2.4375 C 0.375 -2.9375 0.484375 -3.375 0.703125 -3.75 C 0.921875 -4.132812 1.210938 -4.425781 1.578125 -4.625 C 1.953125 -4.832031 2.375 -4.9375 2.84375 -4.9375 C 3.300781 -4.9375 3.71875 -4.832031 4.09375 -4.625 C 4.46875 -4.425781 4.757812 -4.132812 4.96875 -3.75 C 5.1875 -3.375 5.296875 -2.9375 5.296875 -2.4375 C 5.296875 -1.9375 5.179688 -1.492188 4.953125 -1.109375 C 4.734375 -0.734375 4.4375 -0.441406 4.0625 -0.234375 C 3.6875 -0.0234375 3.265625 0.078125 2.796875 0.078125 Z M 2.796875 -0.625 C 3.085938 -0.625 3.359375 -0.691406 3.609375 -0.828125 C 3.867188 -0.960938 4.078125 -1.164062 4.234375 -1.4375 C 4.390625 -1.71875 4.46875 -2.050781 4.46875 -2.4375 C 4.46875 -2.832031 4.390625 -3.164062 4.234375 -3.4375 C 4.085938 -3.707031 3.890625 -3.910156 3.640625 -4.046875 C 3.390625 -4.179688 3.117188 -4.25 2.828125 -4.25 C 2.535156 -4.25 2.265625 -4.179688 2.015625 -4.046875 C 1.773438 -3.910156 1.578125 -3.707031 1.421875 -3.4375 C 1.273438 -3.164062 1.203125 -2.832031 1.203125 -2.4375 C 1.203125 -2.039062 1.273438 -1.707031 1.421875 -1.4375 C 1.566406 -1.164062 1.757812 -0.960938 2 -0.828125 C 2.25 -0.691406 2.515625 -0.625 2.796875 -0.625 Z M 2.796875 -0.625 "/></g></g><g style="fill:#bdbdbd;fill-opacity:1;"><g transform="translate(156.209798, 119.911746)"><path style="stroke:none" d="M 6.53125 -4.953125 C 6.90625 -4.953125 7.238281 -4.875 7.53125 -4.71875 C 7.832031 -4.5625 8.066406 -4.328125 8.234375 -4.015625 C 8.410156 -3.703125 8.5 -3.316406 8.5 -2.859375 L 8.5 0 L 7.703125 0 L 7.703125 -2.75 C 7.703125 -3.238281 7.582031 -3.609375 7.34375 -3.859375 C 7.101562 -4.117188 6.78125 -4.25 6.375 -4.25 C 5.945312 -4.25 5.609375 -4.113281 5.359375 -3.84375 C 5.117188 -3.570312 5 -3.1875 5 -2.6875 L 5 0 L 4.203125 0 L 4.203125 -2.75 C 4.203125 -3.238281 4.082031 -3.609375 3.84375 -3.859375 C 3.601562 -4.117188 3.273438 -4.25 2.859375 -4.25 C 2.441406 -4.25 2.109375 -4.113281 1.859375 -3.84375 C 1.609375 -3.570312 1.484375 -3.1875 1.484375 -2.6875 L 1.484375 0 L 0.6875 0 L 0.6875 -4.859375 L 1.484375 -4.859375 L 1.484375 -4.15625 C 1.648438 -4.414062 1.863281 -4.613281 2.125 -4.75 C 2.394531 -4.882812 2.695312 -4.953125 3.03125 -4.953125 C 3.4375 -4.953125 3.796875 -4.859375 4.109375 -4.671875 C 4.421875 -4.492188 4.65625 -4.226562 4.8125 -3.875 C 4.945312 -4.21875 5.171875 -4.484375 5.484375 -4.671875 C 5.796875 -4.859375 6.144531 -4.953125 6.53125 -4.953125 Z M 6.53125 -4.953125 "/></g></g><g style="fill:#bdbdbd;fill-opacity:1;"><g transform="translate(165.356729, 119.911746)"><path style="stroke:none" d="M 5.125 -2.625 C 5.125 -2.46875 5.113281 -2.300781 5.09375 -2.125 L 1.203125 -2.125 C 1.234375 -1.644531 1.394531 -1.269531 1.6875 -1 C 1.988281 -0.738281 2.351562 -0.609375 2.78125 -0.609375 C 3.132812 -0.609375 3.425781 -0.6875 3.65625 -0.84375 C 3.894531 -1.007812 4.0625 -1.226562 4.15625 -1.5 L 5.015625 -1.5 C 4.890625 -1.03125 4.628906 -0.648438 4.234375 -0.359375 C 3.847656 -0.0664062 3.363281 0.078125 2.78125 0.078125 C 2.320312 0.078125 1.910156 -0.0234375 1.546875 -0.234375 C 1.179688 -0.441406 0.894531 -0.734375 0.6875 -1.109375 C 0.476562 -1.492188 0.375 -1.9375 0.375 -2.4375 C 0.375 -2.9375 0.472656 -3.375 0.671875 -3.75 C 0.878906 -4.132812 1.164062 -4.425781 1.53125 -4.625 C 1.894531 -4.832031 2.3125 -4.9375 2.78125 -4.9375 C 3.25 -4.9375 3.660156 -4.835938 4.015625 -4.640625 C 4.367188 -4.441406 4.640625 -4.164062 4.828125 -3.8125 C 5.023438 -3.457031 5.125 -3.0625 5.125 -2.625 Z M 4.28125 -2.78125 C 4.28125 -3.09375 4.210938 -3.359375 4.078125 -3.578125 C 3.941406 -3.796875 3.753906 -3.960938 3.515625 -4.078125 C 3.285156 -4.203125 3.03125 -4.265625 2.75 -4.265625 C 2.34375 -4.265625 1.992188 -4.132812 1.703125 -3.875 C 1.421875 -3.613281 1.257812 -3.25 1.21875 -2.78125 Z M 4.28125 -2.78125 "/></g></g><g style="fill:#bdbdbd;fill-opacity:1;"><g transform="translate(170.862653, 119.911746)"><path style="stroke:none" d="M 3.046875 -4.953125 C 3.640625 -4.953125 4.117188 -4.769531 4.484375 -4.40625 C 4.859375 -4.050781 5.046875 -3.535156 5.046875 -2.859375 L 5.046875 0 L 4.25 0 L 4.25 -2.75 C 4.25 -3.238281 4.125 -3.609375 3.875 -3.859375 C 3.632812 -4.117188 3.304688 -4.25 2.890625 -4.25 C 2.460938 -4.25 2.117188 -4.113281 1.859375 -3.84375 C 1.609375 -3.582031 1.484375 -3.195312 1.484375 -2.6875 L 1.484375 0 L 0.6875 0 L 0.6875 -4.859375 L 1.484375 -4.859375 L 1.484375 -4.171875 C 1.648438 -4.421875 1.867188 -4.613281 2.140625 -4.75 C 2.421875 -4.882812 2.722656 -4.953125 3.046875 -4.953125 Z M 3.046875 -4.953125 "/></g></g><g style="fill:#bdbdbd;fill-opacity:1;"><g transform="translate(176.546184, 119.911746)"><path style="stroke:none" d=""/></g></g><g style="fill:#bdbdbd;fill-opacity:1;"><g transform="translate(178.917283, 119.911746)"><path style="stroke:none" d="M 3.09375 -4.953125 C 3.457031 -4.953125 3.785156 -4.875 4.078125 -4.71875 C 4.378906 -4.5625 4.613281 -4.328125 4.78125 -4.015625 C 4.957031 -3.703125 5.046875 -3.316406 5.046875 -2.859375 L 5.046875 0 L 4.25 0 L 4.25 -2.75 C 4.25 -3.238281 4.125 -3.609375 3.875 -3.859375 C 3.632812 -4.117188 3.304688 -4.25 2.890625 -4.25 C 2.460938 -4.25 2.117188 -4.113281 1.859375 -3.84375 C 1.609375 -3.582031 1.484375 -3.195312 1.484375 -2.6875 L 1.484375 0 L 0.6875 0 L 0.6875 -6.5625 L 1.484375 -6.5625 L 1.484375 -4.171875 C 1.648438 -4.421875 1.875 -4.613281 2.15625 -4.75 C 2.4375 -4.882812 2.75 -4.953125 3.09375 -4.953125 Z M 3.09375 -4.953125 "/></g></g><g style="fill:#bdbdbd;fill-opacity:1;"><g transform="translate(184.600814, 119.911746)"><path style="stroke:none" d="M 0.375 -2.453125 C 0.375 -2.941406 0.472656 -3.375 0.671875 -3.75 C 0.878906 -4.132812 1.160156 -4.425781 1.515625 -4.625 C 1.867188 -4.832031 2.257812 -4.9375 2.6875 -4.9375 C 3.113281 -4.9375 3.484375 -4.84375 3.796875 -4.65625 C 4.109375 -4.476562 4.34375 -4.25 4.5 -3.96875 L 4.5 -4.859375 L 5.3125 -4.859375 L 5.3125 0 L 4.5 0 L 4.5 -0.90625 C 4.34375 -0.625 4.101562 -0.390625 3.78125 -0.203125 C 3.46875 -0.015625 3.101562 0.078125 2.6875 0.078125 C 2.25 0.078125 1.851562 -0.0234375 1.5 -0.234375 C 1.15625 -0.453125 0.878906 -0.753906 0.671875 -1.140625 C 0.472656 -1.523438 0.375 -1.960938 0.375 -2.453125 Z M 4.5 -2.4375 C 4.5 -2.800781 4.425781 -3.117188 4.28125 -3.390625 C 4.132812 -3.671875 3.929688 -3.882812 3.671875 -4.03125 C 3.421875 -4.175781 3.144531 -4.25 2.84375 -4.25 C 2.539062 -4.25 2.265625 -4.175781 2.015625 -4.03125 C 1.773438 -3.882812 1.578125 -3.675781 1.421875 -3.40625 C 1.273438 -3.132812 1.203125 -2.816406 1.203125 -2.453125 C 1.203125 -2.078125 1.273438 -1.75 1.421875 -1.46875 C 1.578125 -1.195312 1.773438 -0.988281 2.015625 -0.84375 C 2.265625 -0.695312 2.539062 -0.625 2.84375 -0.625 C 3.144531 -0.625 3.421875 -0.695312 3.671875 -0.84375 C 3.929688 -0.988281 4.132812 -1.195312 4.28125 -1.46875 C 4.425781 -1.75 4.5 -2.070312 4.5 -2.4375 Z M 4.5 -2.4375 "/></g></g><g style="fill:#bdbdbd;fill-opacity:1;"><g transform="translate(190.604045, 119.911746)"><path style="stroke:none" d="M 0.375 -2.4375 C 0.375 -2.9375 0.472656 -3.375 0.671875 -3.75 C 0.878906 -4.132812 1.160156 -4.425781 1.515625 -4.625 C 1.878906 -4.832031 2.289062 -4.9375 2.75 -4.9375 C 3.34375 -4.9375 3.832031 -4.789062 4.21875 -4.5 C 4.613281 -4.21875 4.875 -3.816406 5 -3.296875 L 4.125 -3.296875 C 4.039062 -3.597656 3.878906 -3.832031 3.640625 -4 C 3.398438 -4.175781 3.101562 -4.265625 2.75 -4.265625 C 2.289062 -4.265625 1.914062 -4.101562 1.625 -3.78125 C 1.34375 -3.46875 1.203125 -3.019531 1.203125 -2.4375 C 1.203125 -1.851562 1.34375 -1.398438 1.625 -1.078125 C 1.914062 -0.765625 2.289062 -0.609375 2.75 -0.609375 C 3.101562 -0.609375 3.398438 -0.6875 3.640625 -0.84375 C 3.878906 -1.007812 4.039062 -1.25 4.125 -1.5625 L 5 -1.5625 C 4.863281 -1.0625 4.597656 -0.660156 4.203125 -0.359375 C 3.816406 -0.0664062 3.332031 0.078125 2.75 0.078125 C 2.289062 0.078125 1.878906 -0.0234375 1.515625 -0.234375 C 1.160156 -0.441406 0.878906 -0.734375 0.671875 -1.109375 C 0.472656 -1.484375 0.375 -1.925781 0.375 -2.4375 Z M 0.375 -2.4375 "/></g></g><g style="fill:#bdbdbd;fill-opacity:1;"><g transform="translate(195.994517, 119.911746)"><path style="stroke:none" d="M 3.40625 0 L 1.484375 -2.140625 L 1.484375 0 L 0.6875 0 L 0.6875 -6.5625 L 1.484375 -6.5625 L 1.484375 -2.703125 L 3.359375 -4.859375 L 4.484375 -4.859375 L 2.203125 -2.4375 L 4.5 0 Z M 3.40625 0 "/></g></g><g style="fill:#bdbdbd;fill-opacity:1;"><g transform="translate(200.567982, 119.911746)"><path style="stroke:none" d="M 0.375 -2.453125 C 0.375 -2.941406 0.472656 -3.375 0.671875 -3.75 C 0.878906 -4.132812 1.160156 -4.425781 1.515625 -4.625 C 1.867188 -4.832031 2.257812 -4.9375 2.6875 -4.9375 C 3.113281 -4.9375 3.484375 -4.84375 3.796875 -4.65625 C 4.109375 -4.476562 4.34375 -4.25 4.5 -3.96875 L 4.5 -4.859375 L 5.3125 -4.859375 L 5.3125 0 L 4.5 0 L 4.5 -0.90625 C 4.34375 -0.625 4.101562 -0.390625 3.78125 -0.203125 C 3.46875 -0.015625 3.101562 0.078125 2.6875 0.078125 C 2.25 0.078125 1.851562 -0.0234375 1.5 -0.234375 C 1.15625 -0.453125 0.878906 -0.753906 0.671875 -1.140625 C 0.472656 -1.523438 0.375 -1.960938 0.375 -2.453125 Z M 4.5 -2.4375 C 4.5 -2.800781 4.425781 -3.117188 4.28125 -3.390625 C 4.132812 -3.671875 3.929688 -3.882812 3.671875 -4.03125 C 3.421875 -4.175781 3.144531 -4.25 2.84375 -4.25 C 2.539062 -4.25 2.265625 -4.175781 2.015625 -4.03125 C 1.773438 -3.882812 1.578125 -3.675781 1.421875 -3.40625 C 1.273438 -3.132812 1.203125 -2.816406 1.203125 -2.453125 C 1.203125 -2.078125 1.273438 -1.75 1.421875 -1.46875 C 1.578125 -1.195312 1.773438 -0.988281 2.015625 -0.84375 C 2.265625 -0.695312 2.539062 -0.625 2.84375 -0.625 C 3.144531 -0.625 3.421875 -0.695312 3.671875 -0.84375 C 3.929688 -0.988281 4.132812 -1.195312 4.28125 -1.46875 C 4.425781 -1.75 4.5 -2.070312 4.5 -2.4375 Z M 4.5 -2.4375 "/></g></g><g style="fill:#bdbdbd;fill-opacity:1;"><g transform="translate(206.571213, 119.911746)"><path style="stroke:none" d="M 1.671875 -4.203125 L 1.671875 -1.328125 C 1.671875 -1.085938 1.71875 -0.921875 1.8125 -0.828125 C 1.914062 -0.734375 2.09375 -0.6875 2.34375 -0.6875 L 2.9375 -0.6875 L 2.9375 0 L 2.203125 0 C 1.753906 0 1.414062 -0.101562 1.1875 -0.3125 C 0.96875 -0.519531 0.859375 -0.859375 0.859375 -1.328125 L 0.859375 -4.203125 L 0.234375 -4.203125 L 0.234375 -4.859375 L 0.859375 -4.859375 L 0.859375 -6.09375 L 1.671875 -6.09375 L 1.671875 -4.859375 L 2.9375 -4.859375 L 2.9375 -4.203125 Z M 1.671875 -4.203125 "/></g></g><g style="fill:#bdbdbd;fill-opacity:1;"><g transform="translate(209.803724, 119.911746)"><path style="stroke:none" d="M 3.09375 -4.953125 C 3.457031 -4.953125 3.785156 -4.875 4.078125 -4.71875 C 4.378906 -4.5625 4.613281 -4.328125 4.78125 -4.015625 C 4.957031 -3.703125 5.046875 -3.316406 5.046875 -2.859375 L 5.046875 0 L 4.25 0 L 4.25 -2.75 C 4.25 -3.238281 4.125 -3.609375 3.875 -3.859375 C 3.632812 -4.117188 3.304688 -4.25 2.890625 -4.25 C 2.460938 -4.25 2.117188 -4.113281 1.859375 -3.84375 C 1.609375 -3.582031 1.484375 -3.195312 1.484375 -2.6875 L 1.484375 0 L 0.6875 0 L 0.6875 -6.5625 L 1.484375 -6.5625 L 1.484375 -4.171875 C 1.648438 -4.421875 1.875 -4.613281 2.15625 -4.75 C 2.4375 -4.882812 2.75 -4.953125 3.09375 -4.953125 Z M 3.09375 -4.953125 "/></g></g><g style="fill:#bdbdbd;fill-opacity:1;"><g transform="translate(215.487255, 119.911746)"><path style="stroke:none" d="M 2.796875 0.078125 C 2.347656 0.078125 1.9375 -0.0234375 1.5625 -0.234375 C 1.195312 -0.441406 0.90625 -0.734375 0.6875 -1.109375 C 0.476562 -1.492188 0.375 -1.9375 0.375 -2.4375 C 0.375 -2.9375 0.484375 -3.375 0.703125 -3.75 C 0.921875 -4.132812 1.210938 -4.425781 1.578125 -4.625 C 1.953125 -4.832031 2.375 -4.9375 2.84375 -4.9375 C 3.300781 -4.9375 3.71875 -4.832031 4.09375 -4.625 C 4.46875 -4.425781 4.757812 -4.132812 4.96875 -3.75 C 5.1875 -3.375 5.296875 -2.9375 5.296875 -2.4375 C 5.296875 -1.9375 5.179688 -1.492188 4.953125 -1.109375 C 4.734375 -0.734375 4.4375 -0.441406 4.0625 -0.234375 C 3.6875 -0.0234375 3.265625 0.078125 2.796875 0.078125 Z M 2.796875 -0.625 C 3.085938 -0.625 3.359375 -0.691406 3.609375 -0.828125 C 3.867188 -0.960938 4.078125 -1.164062 4.234375 -1.4375 C 4.390625 -1.71875 4.46875 -2.050781 4.46875 -2.4375 C 4.46875 -2.832031 4.390625 -3.164062 4.234375 -3.4375 C 4.085938 -3.707031 3.890625 -3.910156 3.640625 -4.046875 C 3.390625 -4.179688 3.117188 -4.25 2.828125 -4.25 C 2.535156 -4.25 2.265625 -4.179688 2.015625 -4.046875 C 1.773438 -3.910156 1.578125 -3.707031 1.421875 -3.4375 C 1.273438 -3.164062 1.203125 -2.832031 1.203125 -2.4375 C 1.203125 -2.039062 1.273438 -1.707031 1.421875 -1.4375 C 1.566406 -1.164062 1.757812 -0.960938 2 -0.828125 C 2.25 -0.691406 2.515625 -0.625 2.796875 -0.625 Z M 2.796875 -0.625 "/></g></g><g style="fill:#bdbdbd;fill-opacity:1;"><g transform="translate(221.170786, 119.911746)"><path style="stroke:none" d="M 3.046875 -4.953125 C 3.640625 -4.953125 4.117188 -4.769531 4.484375 -4.40625 C 4.859375 -4.050781 5.046875 -3.535156 5.046875 -2.859375 L 5.046875 0 L 4.25 0 L 4.25 -2.75 C 4.25 -3.238281 4.125 -3.609375 3.875 -3.859375 C 3.632812 -4.117188 3.304688 -4.25 2.890625 -4.25 C 2.460938 -4.25 2.117188 -4.113281 1.859375 -3.84375 C 1.609375 -3.582031 1.484375 -3.195312 1.484375 -2.6875 L 1.484375 0 L 0.6875 0 L 0.6875 -4.859375 L 1.484375 -4.859375 L 1.484375 -4.171875 C 1.648438 -4.421875 1.867188 -4.613281 2.140625 -4.75 C 2.421875 -4.882812 2.722656 -4.953125 3.046875 -4.953125 Z M 3.046875 -4.953125 "/></g></g></g></svg>